<?xml version="1.0" standalone="no"?>
<!DOCTYPE svg PUBLIC "-//W3C//DTD SVG 1.1//EN" "http://www.w3.org/Graphics/SVG/1.1/DTD/svg11.dtd" >
<svg xmlns="http://www.w3.org/2000/svg">
<metadata>Generated by IcoMoon</metadata>
<defs>
<font id="icomoon" horiz-adv-x="1024">
<font-face units-per-em="1024" ascent="960" descent="-64" />
<missing-glyph horiz-adv-x="1024" />
<glyph unicode="&#x20;" horiz-adv-x="512" d="" />
<glyph unicode="&#xe900;" glyph-name="Facebook" d="M674.518 789.999h93.481v162.8c-16.097 2.2-71.562 7.2-136.146 7.2-134.789 0-227.102-84.8-227.102-240.6v-143.4h-148.751v-182h148.751v-457.999h182.303v457.999h142.74l22.692 182h-165.432v125.4c0 52.6 14.156 88.6 87.464 88.6z" />
<glyph unicode="&#xe901;" glyph-name="Google" d="M522.129 959.966c127.167 1.501 250.003-46.291 342.553-133.202l-146.147-146.152c-52.864 50.414-123.419 77.875-196.405 76.751-133.568 0-247.004-90.113-287.453-211.453l-3.8-11.997c-17.585-60.181-16.3-124.402 3.8-184.004h0.15c40.634-121.146 153.891-211.295 287.452-211.3 68.967 0 128.17 17.685 174.056 48.85v0.046c53.991 35.744 90.871 92.018 102.35 155.604h-276.555v197.153h482.909c6.016-34.238 8.848-69.254 8.848-104.050-0.005-155.727-55.712-287.338-152.552-376.51l0.149-0.097c-84.84-78.255-201.275-123.598-339.352-123.604-193.583 0-370.64 109.114-457.555 282.002-72.615 144.673-72.617 315.14 0 459.807 86.917 173.070 263.977 282.154 457.555 282.154z" />
<glyph unicode="&#xe902;" glyph-name="Instagram" d="M451.846 960h120.258c85.775-0.194 105.467-0.949 150.978-3.026 54.497-2.485 91.72-11.142 124.287-23.801 33.674-13.084 62.228-30.59 90.696-59.056 28.462-28.468 45.972-57.022 59.054-90.692 12.656-32.569 21.314-69.791 23.803-124.29 2.406-52.793 3.036-70.847 3.077-197.603v-27.013c-0.041-126.756-0.671-144.809-3.077-197.601-2.489-54.497-11.147-91.72-23.803-124.287-13.081-33.674-30.592-62.228-59.054-90.696-28.468-28.462-57.022-45.972-90.696-59.054-32.568-12.656-69.791-21.314-124.287-23.803-52.793-2.406-70.846-3.036-197.601-3.077h-27.013c-126.757 0.041-144.81 0.671-197.603 3.077-54.499 2.489-91.721 11.147-124.29 23.803-33.67 13.081-62.225 30.592-90.692 59.054-28.465 28.468-45.973 57.022-59.056 90.696-12.659 32.568-21.316 69.791-23.801 124.287-2.076 45.511-2.832 65.203-3.026 150.978v120.258c0.194 85.775 0.949 105.469 3.026 150.98 2.485 54.499 11.142 91.721 23.801 124.29 13.084 33.67 30.59 62.225 59.056 90.692 28.468 28.465 57.022 45.973 90.692 59.056 32.569 12.659 69.791 21.316 124.29 23.801 45.511 2.076 65.206 2.832 150.98 3.026v0zM549.531 867.781h-75.115c-102.775-0.107-120.752-0.751-169.344-2.969-49.922-2.276-77.034-10.618-95.076-17.629-23.9-9.289-40.957-20.383-58.873-38.303-17.918-17.916-29.014-34.973-38.303-58.873-7.012-18.042-15.353-45.154-17.629-95.076-2.218-48.592-2.862-66.569-2.969-169.344v-75.115c0.107-102.779 0.751-120.755 2.969-169.349 2.276-49.92 10.618-77.030 17.629-95.074 9.289-23.9 20.386-40.96 38.303-58.874 17.916-17.92 34.973-29.015 58.873-38.303 18.042-7.009 45.154-15.355 95.076-17.628 53.986-2.462 70.176-2.984 206.904-2.984 136.724 0 152.919 0.522 206.904 2.984 49.92 2.273 77.030 10.619 95.074 17.628 23.9 9.288 40.96 20.383 58.874 38.303 17.92 17.915 29.015 34.975 38.303 58.874 7.009 18.043 15.355 45.154 17.628 95.074 2.462 53.995 2.984 70.19 2.984 206.904 0 136.718-0.522 152.912-2.984 206.904-2.273 49.922-10.619 77.034-17.628 95.076-9.288 23.9-20.383 40.957-38.303 58.873-17.915 17.918-34.975 29.014-58.874 38.303-18.043 7.012-45.154 15.353-95.074 17.629-48.594 2.218-66.57 2.862-169.349 2.969zM511.976 704.040c141.393 0 256.015-114.62 256.015-256.015s-114.621-256.015-256.015-256.015c-141.395 0-256.015 114.621-256.015 256.015s114.62 256.015 256.015 256.015zM511.976 614.212c-91.781 0-166.185-74.405-166.185-166.185s74.405-166.184 166.185-166.184c91.781 0 166.184 74.404 166.184 166.184s-74.404 166.185-166.184 166.185zM789.321 789.379c35.348 0 64.006-28.656 64.006-64.004s-28.657-64.002-64.006-64.002c-35.344 0-64 28.654-64 64.002s28.657 64.004 64 64.004z" />
<glyph unicode="&#xe903;" glyph-name="Linkedin" d="M938.455 959.999c47.248 0 85.544-38.273 85.544-85.544v-852.911c0-47.248-38.272-85.544-85.544-85.544h-852.911c-47.245 0-85.544 38.272-85.544 85.544v852.911c0 47.245 38.273 85.544 85.544 85.544h852.911zM692.157 575.998c-72.673 0-122.399-32.123-144.538-69.443l-3.62-6.63v69.673h-138.666v-490.665h149.332v237.676c0 79.657 29.333 130.325 99.84 130.325 48.63 0 69.032-43.003 70.712-119.665l0.118-10.66v-237.676h149.33v270.996c0 146.324-35.005 226.068-182.508 226.068zM298.666 575.998h-149.333v-490.665h149.333v490.665zM224 831.998c-53.014 0-96-42.986-96-96s42.986-96 96-96c53.014 0 96 42.986 96 96s-42.986 96-96 96z" />
<glyph unicode="&#xe904;" glyph-name="Pinterest" d="M-0.001 447.989c0-218.578 136.995-405.201 329.802-478.62-4.694 39.971-9.684 105.893 1.069 152.147 9.265 39.761 59.78 253.345 59.78 253.345s-15.237 30.514-15.237 75.692c0 70.828 41.040 123.739 92.208 123.739 43.524 0 64.51-32.637 64.51-71.763 0-43.729-27.857-109.089-42.234-169.713-11.991-50.727 25.472-92.121 75.472-92.121 90.585 0 160.257 95.521 160.257 233.43 0 122.064-87.724 207.353-212.945 207.353-144.985 0-230.102-108.759-230.102-221.177 0-43.82 16.846-90.744 37.932-116.303 4.141-5.079 4.781-9.477 3.54-14.637-3.883-16.123-12.498-50.723-14.168-57.813-2.261-9.303-7.385-11.305-17.067-6.783-63.662 29.613-103.426 122.671-103.426 197.416 0 160.808 116.782 308.433 336.721 308.433 176.809 0 314.232-125.999 314.232-294.353 0-168.352-110.711-317.047-264.481-317.047-51.669 0-100.18 26.884-116.814 58.576 0 0-25.558-97.369-31.743-121.167-12.026-46.253-45.389-104.793-66.081-138.031 47.701-14.668 98.301-22.574 150.784-22.574 282.739 0 511.991 229.242 511.991 511.996 0 282.751-229.267 511.966-512.007 511.966s-511.991-229.239-511.991-511.991z" />
<glyph unicode="&#xe905;" glyph-name="Tik-Tok" d="M902.144 960h-780.287c-67.072 0-121.856-54.784-121.856-121.856v-780.287c0-67.072 54.784-121.856 121.856-121.856h780.287c67.072 0 121.856 54.784 121.856 121.856v780.287c0 67.072-54.784 121.856-121.856 121.856zM804.863 513.024c-5.632-0.512-11.264-1.024-16.896-1.024-61.44 0-119.296 31.232-153.087 82.432v-281.088c0-114.688-93.184-207.872-207.872-207.872s-207.872 93.184-207.872 207.872c0 114.688 93.184 207.872 207.872 207.872 4.096 0 8.704 0 12.8-0.512v-102.4c-4.096 0-8.704 1.536-12.8 1.536-58.368 0-105.984-47.616-105.984-105.984s47.616-105.984 105.984-105.984c58.368 0 110.592 46.080 110.592 104.96l1.024 477.696h97.792c9.216-88.064 79.872-156.672 168.447-162.816v-113.664z" />
<glyph unicode="&#xe906;" glyph-name="X" d="M605.071 527.581l-297.347 432.419h-294.443l704.138-1024h294.447l-406.795 591.581zM752.416 2.672l-612.443 890.662h132.75l612.444-890.651-132.751-0.011zM448.588 444.514l37.867-55.061-389.373-453.443h-84.949l436.455 508.504zM976.415 960l-416.241-484.689-37.873 55.055 296.444 345.362 72.725 84.273h84.946z" />
<glyph unicode="&#xe907;" glyph-name="Youtube" d="M1002.876 694.4c-11.52 44.16-46.080 78.72-90.238 90.24-80.002 21.76-400.639 21.76-400.639 21.76s-320.64 0-400.639-21.12c-42.88-11.52-78.72-47.36-90.24-90.88-21.12-80-21.12-246.4-21.12-246.4s0-167.038 21.12-246.398c11.52-44.162 46.080-78.722 90.24-90.242 81.279-21.76 400.639-21.76 400.639-21.76s320.637 0 400.639 21.122c44.158 11.52 78.718 46.080 90.238 90.238 21.122 80.002 21.122 246.402 21.122 246.402s0.638 167.038-21.122 247.037v0zM410.238 294.401v307.2l266.238-153.6-266.238-153.6z" />
<glyph unicode="&#xe908;" glyph-name="Become-a-Dealer" d="M897.162 436.030c0 17.996-1.124 35.943-3.357 53.137l47.026 6.113c2.508-19.316 3.751-39.313 3.751-59.25 0-140.32-61.453-266.399-158.486-352.956-83.398-74.405-193.528-119.335-314.034-119.335-120.563 0-230.418 45.202-313.99 119.287-0.696 0.619-1.338 1.293-1.945 1.968-95.918 86.513-156.126 211.666-156.126 350.803 0.004 260.859 211.434 472.273 472.268 472.524 50.181 0 98.624-7.994 144.018-22.459l-7.18-22.598-7.201-22.574c-40.906 13.035-84.486 20.213-129.615 20.213-234.676-0.238-424.868-190.45-424.872-425.105 0-117.109 47.358-223.17 124.197-300.141 72.883 83.95 180.392 137.025 300.444 137.025 120.094-0.002 227.628-53.116 300.513-137.117 76.9 77.020 124.588 183.215 124.588 300.466zM472.060 225.263c-106.046 0-200.938-46.949-265.181-121.303 72.823-58.031 164.852-92.802 265.181-92.802 100.386 0 192.59 34.614 265.203 92.754-64.243 74.379-159.14 121.347-265.203 121.35zM597.946 547.932c0 69.651-56.237 125.91-125.885 125.912-69.654 0-125.912-56.258-125.912-125.912 0.002-69.649 56.26-125.885 125.912-125.885 69.623 0.002 125.883 56.45 125.885 125.885zM645.365 547.932c-0.002-95.576-77.444-173.302-173.305-173.305-95.841 0-173.328 77.466-173.33 173.305 0 95.841 77.49 173.33 173.33 173.33 95.839-0.002 173.305-77.49 173.305-173.33zM827.933 609.823v298.73c0 13.094 10.615 23.709 23.709 23.709s23.709-10.615 23.709-23.709v-298.73c0-13.094-10.615-23.709-23.709-23.709s-23.709 10.615-23.709 23.709zM1000.29 782.898c13.092 0 23.709-10.615 23.709-23.709s-10.617-23.709-23.709-23.709h-298.733c-13.092 0-23.709 10.615-23.709 23.709s10.617 23.709 23.709 23.709h298.733z" />
<glyph unicode="&#xe909;" glyph-name="Coverage-Options" d="M997.012 462.633c12.328-0.004 22.329-10.001 22.329-22.329 0-12.33-10.001-22.325-22.329-22.329h-974.683c-12.332 0-22.329 9.997-22.329 22.329s9.997 22.329 22.329 22.329h974.683zM730.849 57.139v104.495c0 12.332 9.997 22.329 22.329 22.329s22.329-9.997 22.329-22.329v-104.495c0-2.307 0.75-4.74 2.137-6.826l1.592-1.96 0.262-0.264c2.061-2.132 5.105-3.463 8.503-3.466h104.517c2.865 0 6.123 1.204 9.028 4.010 2.134 2.063 3.468 5.103 3.468 8.505v104.495c0 12.33 9.999 22.327 22.329 22.329 12.332 0 22.329-9.997 22.329-22.329v-104.495c0-14.907-5.812-29.736-17.076-40.624-10.488-10.139-24.638-16.55-40.079-16.55h-104.517c-14.782 0.002-29.459 5.752-40.317 16.834l-0.022-0.022c-10.551 10.551-16.812 25.127-16.812 40.362zM69.431 57.139v104.495c0 12.332 9.997 22.329 22.329 22.329s22.329-9.997 22.329-22.329v-104.495c0-2.307 0.75-4.74 2.137-6.826l1.592-1.96 0.262-0.264c2.061-2.132 5.105-3.463 8.504-3.466h104.516c3.072 0 6.366 1.33 8.766 3.729l0.262 0.282c2.134 2.063 3.468 5.103 3.468 8.505v104.495c0 12.33 9.999 22.327 22.329 22.329 12.332 0 22.329-9.997 22.329-22.329v-104.495c0-14.789-5.745-29.477-16.834-40.34l0.020-0.022c-0.087-0.087-0.172-0.177-0.262-0.262l-0.020 0.020c-10.529-10.387-24.953-16.57-40.059-16.57h-104.516c-14.782 0.002-29.459 5.752-40.319 16.834l-0.022-0.022c-10.55 10.551-16.812 25.127-16.812 40.362zM300.769 323.291c12.332 0 22.329-9.997 22.329-22.329 0-12.33-9.997-22.327-22.329-22.329h-69.669c-12.332 0-22.329 9.999-22.329 22.329 0 12.332 9.997 22.329 22.329 22.329h69.669zM788.22 323.291c12.33 0 22.329-9.997 22.329-22.329 0-12.33-9.999-22.327-22.329-22.329h-69.669c-12.332 0-22.329 9.999-22.329 22.329 0 12.332 9.997 22.329 22.329 22.329h69.669zM611.132 775.907v-44.658h-357.268c-2.34 0-4.872-0.735-6.933-2.049-1.619-1.036-3.41-2.941-4.732-5.562l-127.892-288.057v-251.399h790.903v251.399l-40.494 91.237 40.798 18.098 42.435-95.554c1.266-2.851 1.921-5.948 1.921-9.071v-278.439c0-12.332-9.999-22.329-22.329-22.329h-835.56c-12.332 0-22.329 9.997-22.329 22.329v278.439c0 3.121 0.652 6.218 1.919 9.071l130.247 293.356c4.47 9.287 11.555 18.003 21.044 24.075 9.101 5.825 19.956 9.115 31.006 9.115h357.268zM932.009 755.803c0 52.643-42.91 95.572-95.554 95.575-52.648 0-95.576-42.93-95.576-95.575 0.002-52.643 42.93-95.554 95.576-95.554 52.836 0.002 95.549 42.884 95.554 95.554zM976.667 755.803c-0.004-77.28-62.656-140.21-140.212-140.212-77.308 0-140.233 62.904-140.235 140.212 0 77.309 62.924 140.233 140.235 140.233 77.306-0.003 140.212-62.926 140.212-140.233zM917.332 675.134c8.72 8.72 22.854 8.72 31.573 0l68.558-68.56c8.713-8.72 8.72-22.856 0-31.573-8.718-8.718-22.854-8.713-31.573 0l-68.558 68.558c-8.722 8.72-8.722 22.854 0 31.575z" />
<glyph unicode="&#xe90a;" glyph-name="Fading-Protection" d="M448.404 385.332v127.187h126.263v-127.187h-126.263zM321.217 258.72v126.611h127.187v-126.611h-127.187zM574.665 258.72v126.611h126.611v-126.611h-126.611zM701.277 385.332v127.187h127.19v-127.187h-127.19zM195.533 385.332v127.187h125.684v-127.187h-125.684zM86.879-64.001c-23.688 0-44.091 8.557-61.207 25.673s-25.673 37.518-25.673 61.206v850.241c0 23.688 8.557 44.091 25.673 61.207s37.518 25.673 61.207 25.673h850.241c23.688 0 44.089-8.558 61.206-25.673s25.673-37.518 25.673-61.207v-850.241c0-23.688-8.557-44.089-25.673-61.206s-37.518-25.673-61.206-25.673h-850.241zM195.533 4.343h125.684v127.187h-125.684v-127.187zM448.404 4.343h126.263v127.187h-126.263v-127.187zM68.343 131.53h127.19v127.19h126.184v-127.19h126.186v127.19h126.762v-127.19h126.898v127.19h126.904v-127.19h127.187v126.997h-127.187v126.997h127.187v487.594c0 4.635-1.93 8.881-5.791 12.744s-8.111 5.791-12.743 5.791h-850.241c-4.635 0-8.883-1.93-12.744-5.791s-5.791-8.111-5.791-12.744v-487.788h127.19v-126.901h-127.19v-126.901zM86.879 4.343h-18.536v887.311h18.536c-4.635 0-8.883-1.93-12.744-5.791s-5.791-8.111-5.791-12.744v-850.241c0-4.632 1.93-8.881 5.791-12.743s8.111-5.791 12.744-5.791zM701.277 131.53v-127.187h127.19v127.187h-127.19z" />
<glyph unicode="&#xe90b;" glyph-name="Privacy" d="M436.303-13.223c-62.060 3.134-119.7 17.053-172.922 41.75-53.222 24.7-99.406 57.642-138.552 98.827-39.149 41.185-69.74 89.174-91.775 143.963s-33.053 113.682-33.053 176.682c0 65.007 11.88 125.769 35.639 182.281s56.544 105.674 98.357 147.485c41.811 41.814 90.974 74.724 147.485 98.734 56.514 24.010 117.524 36.014 183.033 36.014 65.005 0 125.766-12.006 182.278-36.014s105.674-56.92 147.489-98.734c41.811-41.811 74.723-90.974 98.732-147.485s36.014-117.273 36.014-182.281c0-4.951-0.125-9.982-0.377-15.092-0.252-5.108-0.785-10.139-1.599-15.092-7.772 4.953-16.485 10.078-26.14 15.376s-18.774 9.921-27.362 13.869c0.313 115.66-38.866 212.902-117.539 291.73-78.672 78.83-175.839 118.246-291.495 118.246-54.728 0-105.316-9.309-151.767-27.927s-86.635-43.161-120.549-73.628l328.547-328.074c-8.087-3.948-15.845-8.148-23.272-12.6-7.43-4.45-14.938-8.995-22.521-13.632l-319.141 319.141c-30.468-33.788-54.806-74.3-73.017-121.536-18.211-47.234-27.316-97.494-27.316-150.779 0-98.418 29.26-183.97 87.778-256.656s133.414-119.75 224.689-141.188c9.403-10.405 20.295-21.47 32.675-33.193s24.275-21.783 35.682-30.184zM708.998 38.964c50.901 0 98.873 12.615 143.914 37.846 45.040 25.233 81.603 59.318 109.687 102.259-28.084 42.941-64.646 77.029-109.687 102.259-45.040 25.233-93.013 37.848-143.914 37.848-50.903 0-98.875-12.615-143.917-37.848-45.040-25.23-81.603-59.318-109.687-102.259 28.084-42.941 64.646-77.027 109.687-102.259 45.040-25.23 93.013-37.846 143.917-37.846zM708.998-16.513c-70.711 0-134.324 18.226-190.835 54.678-56.514 36.452-97.902 83.422-124.17 140.905 26.268 57.485 67.656 104.453 124.17 140.905 56.512 36.454 120.123 54.681 190.835 54.681s134.324-18.226 190.835-54.681c56.512-36.452 97.9-83.419 124.168-140.905-26.268-57.483-67.656-104.453-124.168-140.905s-120.123-54.678-190.835-54.678zM708.998 110.426c-18.808 0-34.949 6.741-48.427 20.219s-20.217 29.619-20.217 48.425c0 19.121 6.737 35.339 20.217 48.662s29.619 19.982 48.427 19.982c19.119 0 35.337-6.659 48.659-19.982s19.984-29.541 19.984-48.662c0-18.806-6.662-34.946-19.984-48.425s-29.541-20.219-48.659-20.219z" />
<glyph unicode="&#xe90c;" glyph-name="Safety" d="M511.996-5.841c93.994 30.794 172.172 88.115 234.535 171.962 62.359 83.847 98.823 177.667 109.393 281.458h-343.926v449.327l-336.467-125.034c-3.499-1.4-6.212-3.499-8.136-6.3s-2.888-5.951-2.888-9.45v-253.321c0-10.217 0.226-19.195 0.682-26.927s1.416-17.167 2.885-28.294h343.924v-453.42zM511.996-64c-4.547 0-8.955 0.455-13.225 1.365-4.272 0.908-8.68 2.274-13.23 4.094-118.069 42.063-211.417 115.308-280.041 219.729s-102.934 218.575-102.934 342.452v252.798c0 16.587 4.83 31.755 14.489 45.51 9.658 13.752 21.871 23.638 36.639 29.658l330.694 122.934c9.66 3.639 18.861 5.46 27.61 5.46s17.952-1.819 27.612-5.46l330.694-122.934c14.766-6.020 26.982-15.906 36.639-29.658 9.66-13.754 14.489-28.923 14.489-45.51v-252.798c0-123.878-34.313-238.030-102.937-342.452s-161.969-177.667-280.038-219.729c-4.55-1.821-8.959-3.186-13.23-4.094-4.27-0.908-8.677-1.365-13.227-1.365z" />
<glyph unicode="&#xe90d;" glyph-name="Signal" d="M512 634.747c9.127 0 17.471-5.156 21.553-13.317l325.277-650.553c5.946-11.903 1.123-26.381-10.775-32.33-11.901-5.949-26.379-1.12-32.33 10.775l-65.627 131.25h-476.195l-65.627-131.25c-5.951-11.895-20.43-16.724-32.33-10.775s-16.721 20.427-10.776 32.33l325.278 650.553 1.718 2.915c4.456 6.463 11.844 10.402 19.835 10.402zM297.997 128.761h428.006l-48.189 96.378h-331.627l-48.189-96.378zM370.281 273.328h283.439l-141.719 283.441-141.719-283.441zM512 960c64.971 0 128.667-18.108 183.909-52.307s99.834-83.142 128.803-141.295c28.969-58.157 41.159-123.239 35.178-187.933-5.983-64.689-29.883-126.431-69.014-178.288-8.017-10.621-23.143-12.743-33.767-4.73-10.616 8.019-12.717 23.124-4.705 33.742 33.742 44.707 54.353 97.949 59.509 153.721 5.154 55.771-5.359 111.871-30.33 162.005-24.972 50.13-63.419 92.307-111.038 121.789-47.623 29.482-102.534 45.106-158.544 45.106s-110.922-15.625-158.544-45.106c-47.618-29.482-86.066-71.66-111.038-121.789-24.972-50.133-35.485-106.233-30.33-162.005s25.767-109.014 59.509-153.721c8.011-10.619 5.91-25.723-4.709-33.742-10.621-8.013-25.748-5.891-33.763 4.73-39.135 51.857-63.033 113.598-69.014 178.288-5.98 64.694 6.208 129.775 35.177 187.933 28.967 58.153 73.561 107.096 128.803 141.295s118.938 52.307 183.909 52.307zM512 815.267c29.985 0 59.617-6.591 86.779-19.295 27.149-12.703 51.184-31.207 70.4-54.213 19.223-23.012 33.164-49.977 40.826-78.965 7.66-28.99 8.872-59.321 3.529-88.826-2.373-13.088-14.912-21.777-28.003-19.41-13.094 2.371-21.781 14.907-19.41 28 4.084 22.563 3.151 45.76-2.706 67.93-5.859 22.165-16.504 42.782-31.201 60.378-14.7 17.597-33.091 31.745-53.862 41.459s-43.423 14.753-66.354 14.753c-22.931 0-45.585-5.038-66.354-14.753s-39.163-23.864-53.862-41.459c-14.695-17.597-25.34-38.214-31.201-60.378-5.857-22.17-6.769-45.368-2.681-67.93 2.366-13.094-6.344-25.631-19.438-28-13.088-2.366-25.627 6.323-28 19.41-5.342 29.506-4.13 59.836 3.529 88.826 7.662 28.988 21.603 55.952 40.826 78.965 19.215 23.005 43.247 41.51 70.4 54.213 27.162 12.704 56.794 19.294 86.779 19.295z" />
<glyph unicode="&#xe90e;" glyph-name="UV-Protection" d="M960.354-52.131l-362.199 360.443 53.099 53.096 361.61-361.026c7.424-7.424 11.136-16.274 11.136-26.552 0-10.273-3.907-19.124-11.721-26.547s-16.567-11.036-26.256-10.84c-9.691 0.196-18.246 4.004-25.67 11.426zM104.557 42.465c-35.166 50.17-61.383 103.912-78.653 161.232s-25.904 115.048-25.904 173.185c0 75.722 14.047 149.316 42.14 220.777 28.093 71.465 70.742 135.602 127.942 192.412 57.202 57.202 121.592 99.75 193.171 127.648s144.839 41.846 219.779 41.846c58.53 0 116.2-8.479 173.011-25.436s110.495-43.017 161.055-78.183c11.641-8.204 18.070-18.969 19.283-32.293 1.21-13.321-3.304-25.103-13.537-35.34l-751.006-751.003c-10.627-10.627-22.349-15.336-35.163-14.126-12.816 1.213-23.522 7.64-32.116 19.283zM139.603 104.471l113.35 114.286c-16.646 22.742-33.094 47.357-49.347 73.847-16.256 26.49-31.043 54.897-44.367 85.215-13.324 30.322-24.070 62.245-32.234 95.769-8.167 33.524-12.797 68.297-13.889 104.323-36.027-77.91-50.504-158.516-43.432-241.821 7.071-83.3 30.379-160.509 69.919-231.62zM309.1 270.333l380.134 383.767c-45.559 35.792-92.27 63.707-140.133 83.749-47.863 20.044-93.54 33.076-137.028 39.092-43.487 6.019-82.246 5.629-116.279-1.17s-60.19-19.34-78.476-37.626c-18.676-18.286-30.943-44.544-36.803-78.772-5.864-34.224-5.376-72.417 1.463-114.579 6.839-42.157 20.69-86.857 41.554-134.096s49.387-94.026 85.569-140.365zM858.728 819.961c-72.519 44.62-150.683 69.606-234.494 74.959s-164.669-10.413-242.58-47.299c35.163-0.701 69.099-5.233 101.803-13.596 32.702-8.363 64.213-18.99 94.535-31.884 30.322-12.891 59.136-27.563 86.449-44.014 27.31-16.449 53.352-33.426 78.123-50.932l116.163 112.765z" />
<glyph unicode="&#xe90f;" glyph-name="VLT" d="M970.106 448c0 112.459-40.547 215.433-107.789 295.157v-590.288c67.234 79.722 107.789 182.679 107.789 295.131zM538.947-9.265c37.304 2.166 73.407 8.752 107.789 19.316v875.924c-34.379 10.564-70.489 17.151-107.789 19.316v-914.555zM700.631 30.421c39.19 17.731 75.414 40.837 107.789 68.341v698.5c-32.375 27.505-68.602 50.615-107.789 68.343v-835.186zM53.894 448c0-243.958 190.699-443.314 431.158-457.265v914.555c-240.46-13.949-431.158-213.332-431.158-457.29zM1024 448c0-282.769-229.231-512-512-512s-512 229.231-512 512c0 282.769 229.231 512 512 512s512-229.231 512-512z" />
<glyph unicode="&#xe910;" glyph-name="Xpel-Installer" d="M524.35-60.26c-7.478-4.987-17.218-4.987-24.696 0l12.349 18.521 12.349-18.521zM890.436 537.043c0 100.512-39.745 196.57-110.804 267.63v0.022c-71.088 70.858-167.163 110.783-267.631 110.783-100.512 0-196.57-39.744-267.631-110.805l-0.020 0.022c-70.862-71.084-110.783-167.396-110.783-267.652 0-146.877 94.951-286.152 194.239-390.957 49.187-51.921 98.465-94.348 135.455-123.803 18.479-14.714 33.859-26.159 44.566-33.892 1.475-1.064 2.881-2.033 4.174-2.956 1.293 0.923 2.698 1.892 4.174 2.956 10.707 7.733 26.088 19.178 44.566 33.892 36.991 29.455 86.267 71.882 135.455 123.803 99.288 104.804 194.239 244.079 194.239 390.957zM934.957 537.043c0-164.772-105.396-314.891-206.456-421.565-50.984-53.815-101.883-97.652-140.023-128.022-19.082-15.195-35.012-27.060-46.216-35.152-5.603-4.045-10.039-7.148-13.087-9.261-1.525-1.055-2.709-1.861-3.522-2.414-0.407-0.277-0.717-0.505-0.935-0.652l-0.328-0.218-0.020-0.020c-0.009-0.006-0.022-0.002-12.37 18.521-12.349-18.523-12.361-18.528-12.37-18.521l-0.020 0.020-0.328 0.218c-0.218 0.147-0.528 0.377-0.935 0.652-0.813 0.552-1.997 1.358-3.522 2.414-3.048 2.113-7.484 5.215-13.087 9.261-11.204 8.092-27.134 19.957-46.216 35.152-38.139 30.37-89.039 74.207-140.023 128.022-101.059 106.674-206.456 256.792-206.456 421.565 0 112.101 44.641 219.71 123.803 299.109l0.022 0.022c79.422 79.423 186.828 123.826 299.131 123.826 108.82 0 212.981-41.914 291.566-116.5l7.564-7.326c79.422-79.422 123.826-186.828 123.826-299.131zM739.262 543.499c0 125.5-101.783 227.283-227.283 227.283s-227.281-101.783-227.281-227.283c0-125.5 101.781-227.281 227.281-227.281s227.283 101.781 227.283 227.281zM783.784 543.499c0-150.088-121.715-271.803-271.805-271.803-150.088 0-271.803 121.715-271.803 271.803 0 150.090 121.715 271.805 271.803 271.805 150.090 0 271.805-121.715 271.805-271.805zM422.063 554.854c0 14.914 12.021 26.935 26.935 26.935s26.935-12.021 26.935-26.935c0-14.914-12.021-26.935-26.935-26.935s-26.935 12.021-26.935 26.935zM388.226 574.443c-10.907 0-19.589-8.682-19.589-19.589s8.682-19.589 19.589-19.589c10.907 0 19.589 8.682 19.589 19.589s-8.682 19.589-19.589 19.589zM354.612 554.854c0-8.236-6.678-14.914-14.914-14.914s-14.914 6.678-14.914 14.914c0 8.236 6.678 14.914 14.914 14.914s14.914-6.678 14.914-14.914zM651.127 442.882l-64.557 107.52 98.616 94.163h-82.588l-46.748-47.193-26.713 47.193h-79.693l59.436-94.163-100.396-107.52h77.69l51.868 57.211 35.172-57.211h77.913z" />
<glyph unicode="&#xe911;" glyph-name="Arrow-Down" d="M834.199 381.803c19.993 19.993 52.403 19.993 72.402 0 19.993-19.993 19.993-52.403 0-72.402l-358.4-358.4c-19.999-19.993-52.409-19.993-72.402 0l-358.4 358.4c-19.994 19.999-19.994 52.409 0 72.402s52.405 19.993 72.401 0l322.199-322.201 322.201 322.201zM460.803-12.8v921.599c0 28.277 22.922 51.2 51.2 51.2s51.2-22.924 51.2-51.2v-921.599c0-28.278-22.922-51.2-51.2-51.2s-51.2 22.922-51.2 51.2z" />
<glyph unicode="&#xe912;" glyph-name="Arrow-Left" d="M414.886 886.445c22.215 22.216 58.225 22.216 80.447 0 22.215-22.217 22.215-58.228 0-80.445l-358.002-357.998 358.002-358.001c22.215-22.215 22.215-58.225 0-80.447-22.221-22.215-58.232-22.215-80.447 0l-398.222 398.222c-22.216 22.221-22.216 58.232 0 80.447l398.222 398.222zM967.111 504.885c31.42 0 56.889-25.469 56.889-56.889s-25.469-56.889-56.889-56.889h-910.222c-31.419 0-56.889 25.469-56.889 56.889s25.471 56.889 56.889 56.889h910.222z" />
<glyph unicode="&#xe913;" glyph-name="Arrow-Right" d="M528.664 886.445c22.215 22.216 58.225 22.216 80.447 0l398.222-398.222c22.215-22.215 22.215-58.225 0-80.447l-398.222-398.222c-22.221-22.215-58.232-22.215-80.447 0-22.215 22.221-22.215 58.232 0 80.447l358.001 358.001-358.001 357.998c-22.215 22.217-22.215 58.228 0 80.445zM967.111 504.885c31.42 0 56.889-25.469 56.889-56.889s-25.469-56.889-56.889-56.889h-910.222c-31.419 0-56.889 25.469-56.889 56.889s25.471 56.889 56.889 56.889h910.222z" />
<glyph unicode="&#xe914;" glyph-name="Arrow-Right-45" d="M101.101 883.068c0 42.478 34.427 76.905 76.905 76.905h761.401c42.479 0 76.905-34.427 76.905-76.905v-761.401c0-42.479-34.427-76.905-76.905-76.905s-76.905 34.427-76.905 76.905v684.497h-684.495c-42.478 0-76.905 34.427-76.905 76.905zM892.705 937.472c30.034 30.036 78.729 30.036 108.77 0 30.034-30.038 30.034-78.734 0-108.772l-870.175-870.173c-30.038-30.034-78.734-30.034-108.772 0s-30.036 78.736 0 108.77l870.175 870.175z" />
<glyph unicode="&#xe915;" glyph-name="Arrow-Up" d="M479.701 948.512c20.106 16.402 49.751 15.245 68.501-3.5l358.4-358.4c19.993-19.996 19.993-52.406 0-72.401-19.999-19.993-52.409-19.993-72.402 0l-322.201 322.2-322.199-322.2c-19.996-19.993-52.405-19.993-72.401 0s-19.994 52.405 0 72.401l358.4 358.4 3.901 3.5zM460.803-12.8v921.599c0 28.277 22.922 51.2 51.2 51.2s51.2-22.924 51.2-51.2v-921.599c0-28.278-22.922-51.2-51.2-51.2s-51.2 22.922-51.2 51.2z" />
<glyph unicode="&#xe916;" glyph-name="Automotive" d="M981.333 540.947c23.565 0 42.667-19.102 42.667-42.667s-19.102-42.667-42.667-42.667h-938.666c-23.564 0-42.667 19.102-42.667 42.667s19.103 42.667 42.667 42.667h938.666zM956.958 129.508c-0.004-20.203-8.047-39.586-22.332-53.875-14.289-14.281-33.677-22.289-53.875-22.289h-100.544c-20.198 0-39.586 8.013-53.875 22.289-14.285 14.289-22.327 33.673-22.332 53.875v100.587c0 23.565 19.102 42.667 42.667 42.667s42.667-19.102 42.667-42.667v-91.418h82.291v91.418c0 23.565 19.102 42.667 42.667 42.667 23.561-0.004 42.667-19.106 42.667-42.667v-100.587zM320.042 129.508c-0.003-20.203-8.048-39.586-22.333-53.875-14.287-14.281-33.674-22.289-53.875-22.289h-100.541c-20.2 0-39.588 8.013-53.875 22.289-14.286 14.289-22.33 33.673-22.333 53.875v100.587c0 23.565 19.102 42.667 42.667 42.667s42.667-19.102 42.667-42.667v-91.418h82.292v91.418c0 23.565 19.102 42.667 42.667 42.667 23.561-0.004 42.667-19.106 42.667-42.667v-100.587zM310.875 406.842c23.564 0 42.667-19.102 42.667-42.667 0-23.561-19.102-42.667-42.667-42.667h-67.042c-23.564 0-42.667 19.106-42.667 42.667 0 23.565 19.103 42.667 42.667 42.667h67.042zM780.207 406.842c23.565 0 42.667-19.102 42.667-42.667 0-23.561-19.102-42.667-42.667-42.667h-67.042c-23.561 0-42.667 19.106-42.667 42.667 0 23.565 19.106 42.667 42.667 42.667h67.042zM758.417 842.656l5.542-0.208c10.961-0.797 21.623-3.946 31.249-9.25l4.749-2.833 4.501-3.166c8.768-6.646 15.983-15.128 21.167-24.834l2.415-4.958 125.252-281.79c2.423-5.457 3.708-11.366 3.708-17.335v-268.207c-0.009-23.556-19.11-42.662-42.667-42.667h-804.583c-23.561 0-42.66 19.106-42.667 42.667v268.207c0.001 5.969 1.242 11.878 3.666 17.335l125.25 281.79 2.417 4.958c6.048 11.326 14.892 20.972 25.708 28l4.708 2.833c11.238 6.198 23.898 9.457 36.792 9.458h492.792zM152.417 489.197v-216.457h719.249v216.457l-119.168 268.126h-480.916l-119.166-268.126z" />
<glyph unicode="&#xe917;" glyph-name="Bicycle" d="M341.332 282.031c0 70.729-57.271 128-128 128s-128-57.271-128-128c0-70.729 57.271-128 128-128s128 57.271 128 128zM426.666 282.031c0-117.858-95.476-213.333-213.333-213.333s-213.333 95.475-213.333 213.333c0 117.858 95.476 213.333 213.333 213.333s213.333-95.475 213.333-213.333zM789.332 827.302c23.565 0 42.667-19.103 42.667-42.667s-19.102-42.667-42.667-42.667h-61.001l-49.54-83.375 170.415-358.251c10.112-21.274 1.058-46.707-20.207-56.832-21.278-10.121-46.75-1.105-56.875 20.164l-159.083 334.502h-250.377c-23.563 0-42.664 19.105-42.667 42.667 0 23.564 19.103 42.667 42.667 42.667h231.667l34.709 58.458h-31.71c-23.565 0-42.667 19.103-42.667 42.667s19.102 42.667 42.667 42.667h192zM361.535 683.516c16.809 0.443 32.305-9.050 39.583-24.208l137.71-286.833h101.167c23.565 0 42.667-19.102 42.667-42.667-0.004-23.565-19.106-42.667-42.667-42.667h-128c-16.41 0-31.36 9.417-38.46 24.209l-108.125 225.207-112.708-270.916c-9.052-21.751-33.998-32.047-55.75-23.002-21.755 9.054-32.054 34.035-23 55.791l149.333 358.793 2.792 5.583c7.426 12.378 20.746 20.317 35.459 20.708zM213.332 827.302c60.171 0 104.886-34.088 134.208-69.375 29.298-35.26 47.694-76.679 56.041-105 6.66-22.604-6.272-46.34-28.875-53-22.599-6.65-46.3 6.276-52.958 28.875-5.736 19.461-19.336 49.911-39.834 74.583-20.491 24.659-43.421 38.583-68.583 38.583-23.564 0-42.667 19.103-42.667 42.667s19.103 42.667 42.667 42.667zM938.666 282.031c0 70.729-57.271 128-128 128s-128-57.271-128-128c0-70.729 57.271-128 128-128s128 57.271 128 128zM1023.999 282.031c0-117.858-95.475-213.333-213.333-213.333s-213.333 95.475-213.333 213.333c0 117.858 95.475 213.333 213.333 213.333s213.333-95.475 213.333-213.333z" />
<glyph unicode="&#xe918;" glyph-name="Blog" d="M1023.999 233.161c-0.004-21.839-8.695-42.789-24.139-58.228-15.44-15.44-36.389-24.092-58.224-24.092h-286.413c-25.633 0-50.232-10.193-68.362-28.318-15.863-15.863-25.665-36.687-27.862-58.82l-0.684-14.317c-2.384-23.469-22.216-41.774-46.318-41.774-25.707 0-46.546 20.843-46.546 46.546 0.004 50.325 20.005 98.597 55.589 134.186 35.589 35.579 83.861 55.589 134.181 55.589h275.684v551.364h-275.684c-25.637 0-50.232-10.189-68.362-28.318s-28.318-42.724-28.318-68.364c-0.004-25.702-20.843-46.546-46.546-46.546s-46.54 20.844-46.546 46.546c0 50.328 20.005 98.594 55.589 134.182 35.589 35.588 83.856 55.592 134.181 55.592h286.413c21.839 0 42.784-8.692 58.224-24.136 15.444-15.444 24.139-36.387 24.139-58.227v-572.861zM465.454 698.614c0 25.64-10.189 50.234-28.318 68.364s-42.724 28.318-68.364 28.318h-275.681v-551.364h275.681c34.304 0 67.656-9.319 96.682-26.498v481.18zM558.546 54.157c0-25.703-20.839-46.546-46.546-46.546-24.101 0-43.934 18.307-46.318 41.774l-0.684 14.317c-2.197 22.132-11.999 42.957-27.862 58.82-18.13 18.124-42.73 28.318-68.364 28.318h-286.409c-21.835 0-42.784 8.653-58.227 24.092-15.441 15.44-24.133 36.389-24.136 58.228v572.861c0 21.84 8.692 42.783 24.136 58.227s36.387 24.136 58.227 24.136h286.409c50.327 0 98.595-20.003 134.184-55.592 35.584-35.588 55.589-83.854 55.589-134.182v-644.457zM834.182 709.363c25.707 0 46.546-20.84 46.546-46.546s-20.839-46.546-46.546-46.546h-179c-25.707 0-46.546 20.839-46.546 46.546s20.839 46.546 46.546 46.546h179zM834.182 566.136c25.707 0 46.546-20.841 46.546-46.544 0-25.707-20.839-46.546-46.546-46.546h-179c-25.707 0-46.546 20.839-46.546 46.546 0 25.703 20.839 46.544 46.546 46.544h179zM834.182 422.931c25.707 0 46.546-20.839 46.546-46.546s-20.839-46.546-46.546-46.546h-179c-25.707 0-46.546 20.839-46.546 46.546s20.839 46.546 46.546 46.546h179z" />
<glyph unicode="&#xe919;" glyph-name="Careers" d="M678.165 959.739c10.112-0.74 19.947-3.675 28.817-8.59l4.361-2.636 4.184-2.954c8.061-6.156 14.715-13.979 19.448-22.952l2.183-4.59 62.628-145.934 160.111-13.725c11.732-0.909 23.022-4.739 32.814-11.18l4.226-3 3.956-3.318c7.683-6.886 13.742-15.389 17.727-24.905l1.815-4.863 1.456-4.953c2.936-11.651 2.815-23.904-0.409-35.541-3.695-13.308-11.276-25.242-21.77-34.222l-0.088-0.045-121.121-103.166 36.221-153.387 0.14-0.638c2.946-13.343 1.932-27.276-2.955-40.037s-13.44-23.809-24.544-31.772c-11.099-7.954-24.298-12.463-37.947-12.998-13.654-0.53-27.165 2.969-38.855 10.048l-137.526 81.759-137.48-81.759c-11.691-7.074-25.205-10.578-38.86-10.048-13.645 0.536-26.848 5.045-37.947 12.998-11.099 7.958-19.606 19.016-24.498 31.772-4.887 12.761-5.943 26.695-2.997 40.037 0.051 0.238 0.125 0.489 0.181 0.726l36.31 153.070-121.117 103.439c-10.498 8.981-18.076 20.91-21.77 34.222-3.689 13.302-3.36 27.397 1 40.494l1.818 4.863c4.642 11.099 12.103 20.843 21.679 28.223l4.227 3c9.777 6.434 21.054 10.264 32.768 11.18l159.887 13.589 62.716 146.070 2.229 4.59c5.529 10.47 13.631 19.397 23.585 25.905l4.365 2.636c10.354 5.743 22.049 8.772 33.95 8.772l5.086-0.182zM626.311 722.545l0.041-0.045c-4.942-11.567-12.919-21.586-23.084-28.995-10.169-7.406-22.157-11.924-34.68-13.089l-0.409-0.046-118.074-9.953 89.126-76.126 6.724-6.59c4.188-4.696 7.726-9.94 10.5-15.589l3.546-8.726 2.359-9.135c1.727-9.255 1.554-18.797-0.544-28.040l-0.088-0.456-26.997-113.573 102.622 60.989c10.816 6.385 23.162 9.773 35.723 9.773l9.359-0.638c9.262-1.247 18.216-4.351 26.318-9.135l0.135-0.088 102.576-60.947-26.997 114.299c-2.797 12.328-2.164 25.184 1.819 37.179l3.589 8.726c4.156 8.457 10.005 16.020 17.224 22.178l88.987 75.898-117.98 10.044c-12.543 1.054-24.577 5.491-34.816 12.816-10.29 7.367-18.411 17.383-23.451 28.995l-0.041 0.182-46.767 108.939-46.72-108.848zM264.229 516.696c18.175 18.173 47.634 18.173 65.808 0 18.172-18.173 18.172-47.637 0-65.81l-250.6-250.601c-18.174-18.169-47.634-18.169-65.808 0-18.174 18.178-18.172 47.637 0 65.81l250.6 250.601zM335.854 266.117c18.175 18.173 47.634 18.173 65.808 0 18.171-18.173 18.171-47.637 0-65.81l-250.6-250.596c-18.174-18.173-47.634-18.173-65.809 0s-18.172 47.632 0 65.806l250.6 250.601zM657.991 266.117c18.173 18.173 47.632 18.173 65.806 0s18.173-47.637 0-65.81l-250.596-250.596c-18.173-18.173-47.637-18.173-65.81 0s-18.172 47.632 0 65.806l250.601 250.601z" />
<glyph unicode="&#xe91a;" glyph-name="Cart" d="M132.927 109.238c0.008-40.287 35.421-75.713 76.191-75.713h605.765c41.999 0 76.176 34.255 76.191 73.333v423.048h-758.145v-420.669zM988.596 106.858c-0.015-95.837-80.799-170.857-173.714-170.857h-605.765c-94.151 0-173.706 78.609-173.714 173.237v433.811c0.008 46.399 37.982 84.373 84.381 84.381h784.43c46.407 0 84.373-37.978 84.383-84.381v-436.191zM676.831 578.668v118.761c0 91.371-73.679 165.043-165.049 165.048-91.373 0-165.046-73.674-165.046-165.048v-118.761c0-26.93-21.832-48.762-48.762-48.762s-48.762 21.831-48.762 48.762v118.761c0 145.234 117.337 262.571 262.569 262.571 145.232-0.003 262.573-117.339 262.573-262.571v-118.761c0-26.926-21.84-48.754-48.762-48.762-26.931 0-48.762 21.831-48.762 48.762z" />
<glyph unicode="&#xe91b;" glyph-name="self-healing-white-2" d="M319.762 576.019c5.265 0 9.069 0 13.164 0 81.907 2.048 107.649-8.191 166.154-68.743 44.464-45.927 89.513-90.975 135.146-135.439 62.6-60.845 71.961-85.124 69.914-168.787 0-3.51 0-7.021 0-11.408 3.802 0 7.313 0 10.531 0 21.939-0.878 44.171-0.585 66.11-3.217 30.13-3.51 55.287-19.014 76.642-40.368 51.777-51.777 103.261-104.431 154.745-156.501 8.484-8.776 14.627-18.722 10.531-31.593-4.095-12.286-12.579-20.184-25.157-23.109-8.776-2.048-16.674 0.585-23.109 6.436-10.531 9.36-20.77 19.307-30.715 29.252-43.001 42.416-86.295 85.124-129.296 127.833-11.701 11.408-24.279 21.647-40.953 25.157-7.606 1.463-15.212 2.633-23.109 2.633-23.987 0.293-47.974 0-71.961 0-26.327 0-38.028 11.701-38.028 38.321 0 23.402 0 47.096 0 70.499 0.293 24.572-7.898 45.342-25.157 62.6-62.6 62.308-124.908 124.908-187.508 187.508-17.551 17.844-38.906 26.327-64.063 25.742-23.402-0.585-47.096 0-70.499 0-25.158 0-37.151 11.993-37.151 37.443 0 23.109-0.293 46.511 0 69.621 0.585 26.327-9.069 47.975-27.498 66.696-71.084 71.084-142.167 143.044-213.543 214.712-2.341 2.341-4.973 4.973-7.021 7.606-10.823 14.041-9.945 29.545 2.633 41.831 11.701 11.408 27.205 12.286 40.368 1.463 2.633-2.048 5.265-4.68 7.606-7.021 71.375-70.791 143.044-141.582 214.42-212.373 31.301-31.008 47.389-68.159 46.804-112.623 0-14.334 0-28.667 0-44.171zM576.014 768.21c16.088 0 30.715-0.293 45.634 0 42.123 1.17 77.518-13.164 106.479-43.879 23.109-24.279 47.389-47.681 70.791-71.959 23.694-24.279 32.763-54.409 33.348-87.465 0-17.259 0-34.517 0-52.946 5.85 0 11.116 0 16.381 0 21.062-0.878 42.123-0.585 62.893-2.926 26.327-2.926 47.974-16.674 66.695-35.103 12.286-11.993 24.279-23.987 35.98-36.273 21.939-22.817 2.341-48.851-17.551-52.654-8.484-1.463-16.091 0.878-22.234 6.436-11.405 10.531-22.521 21.062-33.345 32.47-16.088 17.259-35.688 25.157-59.382 24.572-25.45-0.585-50.607 0-76.057 0s-37.443 11.993-37.443 37.151c0 26.327 0 52.946 0 79.274 0 21.355-7.313 39.491-22.817 54.409-21.355 21.062-42.416 42.123-63.478 63.477-14.627 14.919-32.178 22.231-52.946 21.939-26.327 0-52.946 0-79.274 0-26.035 0-37.736 11.701-37.736 37.443 0 26.035 0 52.362 0 78.396 0 21.939-7.313 40.076-23.109 54.994-10.531 10.238-21.062 20.477-31.008 31.3-17.844 19.599-8.776 47.681 17.551 52.362 6.143 1.17 14.919-0.293 19.307-4.095 25.157-22.524 51.777-44.171 67.866-74.594 9.653-18.429 12.579-38.321 12.871-58.798 0-17.259 0-34.517 0-53.239l0.585-0.293zM255.699 191.645c17.551 0 34.225 0 50.607 0 38.321 0.293 70.791-12.871 97.703-40.076 52.946-53.239 105.894-106.186 158.84-159.133 14.919-14.919 16.674-29.252 5.558-43.294-11.408-14.627-28.96-16.674-43.586-4.973-2.633 2.048-5.265 4.68-7.606 7.021-51.485 51.192-102.676 102.676-153.868 154.16-15.503 15.796-33.641 23.402-55.872 23.109-25.742-0.293-51.777 0-77.811 0-25.742 0-37.736 11.993-37.736 37.736 0 26.035-0.293 51.777 0 77.518 0.293 22.231-7.313 40.368-23.109 55.872-51.192 50.899-102.383 102.091-153.575 153.282-2.341 2.341-4.973 4.973-7.021 7.606-11.701 14.041-10.823 29.837 2.048 42.123 11.993 11.701 27.498 11.993 40.953 0.878 2.341-1.755 4.388-3.802 6.436-5.85 51.777-51.777 103.553-103.846 155.916-155.623 28.374-28.082 42.708-61.43 41.831-101.214-0.293-16.088 0-31.885 0-49.144h0.293z" />
<glyph unicode="&#xe91c;" glyph-name="long-lasting-icon-2" d="M182.412 474.939c13.735-7.849 26.345-15.041 38.955-22.233 32.040-18.29 63.982-36.677 96.118-54.802 18.625-10.509 34.775-5.223 42.269 13.331 4.632 11.394 2.155 22.492-7.044 30.209-3.475 2.923-7.239 5.615-11.196 7.881-61.44 35.169-122.945 70.238-184.417 105.341-21.328 12.15-34.548 8.374-46.418-13.234-34.902-63.703-69.837-127.407-104.674-191.142-9.329-17.044-7.849-28.109 4.89-39.406 11.516-10.179 28.243-8.8 37.668 3.317 2.991 3.842 5.597 8.013 7.945 12.314 20.845 37.893 41.593 75.853 62.373 113.813 1.383 2.528 2.766 5.088 5.211 9.521 1.544-19.832 2.445-37.366 4.375-54.771 8.267-74.311 32.168-143.038 73.439-204.934 30.785-46.2 69.451-84.653 114.228-116.931 51.050-36.81 107.312-61.21 168.075-74.573 50.376-11.098 101.266-11.689 152.348-4.695 63.048 8.636 121.143 30.999 175.282 64.721 45.036 28.043 83.444 63.637 115.869 105.9 42.043 54.805 70.447 116.372 85.694 184.215 12.16 54.081 13.382 108.622 6.080 163.461-9.94 74.539-37.348 142.084-79.616 203.391-29.337 42.589-65.621 78.119-107.44 107.902-74.21 52.801-156.722 79.99-246.983 82.88-65.687 2.102-128.738-10.672-189.373-36.252-15.601-6.568-24.191-24.923-18.465-39.47 5.436-13.792 22.808-20.49 38.988-14.809 20.747 7.257 41.047 16.156 62.18 21.837 83.122 22.296 164.634 16.616 244.219-17.042 59.221-25.055 109.757-62.423 151.158-112.039 33.39-40.029 58.705-85.212 74.756-135.385 22.936-71.584 25.189-144.318 8.653-217.381-12.803-56.578-36.895-107.999-72.119-153.972-52.787-68.858-120.693-115.027-202.207-140.41-39.984-12.446-81.319-15.828-123.042-14.579-54.523 1.64-106.026 15.401-155.371 38.945-47.769 22.787-89.103 54.54-123.782 94.569-48.059 55.462-79.518 119.952-93.479 192.916-6.337 33.065-7.849 66.462-5.179 101.597h0.032zM512.428 531.618c0 31.981-0.45 63.998 0.323 95.949 0.192 8.011 2.541 17.073 6.882 23.609 6.627 9.983 17.822 11.328 28.888 8.341 10.131-2.726 16.726-9.458 18.366-20.393 0.644-4.301 1.254-8.636 1.254-12.969 0.099-58.22 0.13-116.473-0.032-174.694 0-5.351 1.544-9.095 5.212-12.871 41.689-42.852 83.282-85.869 124.81-128.917 14.863-15.401 13.351-33.725-3.506-45.117-11.388-7.719-23.033-5.716-35.161 6.567-22.066 22.328-43.973 44.823-65.943 67.249-23.482 23.971-46.804 48.106-70.543 71.815-7.465 7.454-10.648 15.893-10.584 26.302 0.16 31.72 0.064 63.441 0.064 95.128h-0.032z" />
<glyph unicode="&#xe91d;" glyph-name="Ease-of-Maintenance-2" d="M511.513-63.998c-277.941 0.975-512.485 222.109-511.51 512.242 0.975 289.889 225.523 511.754 511.51 511.754 284.769 0 511.754-219.428 512.486-512.486 0.488-290.62-234.3-510.779-512.486-511.51zM512-1.583c242.102-1.219 449.827 196.509 449.095 450.070-0.731 253.073-200.41 448.851-450.070 448.12-253.073-0.731-448.119-199.923-448.363-448.12-0.488-255.999 209.675-451.777 449.338-450.070zM512.486 383.147c80.701 0 161.645 0 242.346 0 17.067 0 34.377-0.731 48.030-13.41 11.215-10.484 15.848-22.187 11.215-37.303-24.869-82.895-70.705-151.161-147.26-194.071-71.436-40.229-147.991-52.907-228.936-32.183-53.882 13.897-101.425 38.522-141.409 78.019-42.91 42.423-70.949 93.135-87.040 150.673-5.608 19.749 8.29 40.472 30.476 45.105 10.728 2.438 22.187 3.17 33.402 3.17 79.726 0.244 159.45 0 239.176 0zM740.447 318.537h-456.897c19.992-74.118 111.421-159.207 228.692-158.963 117.516 0 208.456 85.090 228.449 158.963h-0.244zM357.424 666.452c27.307-1.707 57.051-12.922 79.238-39.985 18.53-22.43 31.939-47.787 41.448-75.337 5.851-17.554-1.95-33.402-19.017-40.229-16.823-6.583-31.695-0.488-38.766 17.554-9.265 23.893-18.286 47.787-39.253 64.853-18.53 15.116-40.229 15.36-57.783-0.488-15.604-14.141-27.794-30.72-33.646-51.444-6.583-23.65-18.286-33.402-35.596-32.183-17.553 1.219-28.524 12.922-28.037 30.476 0.731 24.381 11.947 44.861 24.867 64.853 23.65 36.571 54.126 61.44 106.545 62.171v-0.244zM800.424 543.817c0.244-17.067-10.242-30.476-24.871-34.133-14.141-3.657-27.307 3.901-34.621 19.261-8.29 17.067-15.36 35.109-26.088 50.956-12.19 17.798-29.989 30.964-53.15 22.674-11.215-4.145-22.43-12.922-29.501-22.674-10.24-13.897-17.31-30.232-24.381-46.080-8.046-18.042-18.53-26.088-34.865-24.381-17.067 1.95-28.77 15.36-27.063 31.451 4.632 42.179 48.762 108.983 95.33 121.417 45.592 11.947 97.036-4.145 122.636-43.642 11.703-18.286 21.211-38.034 31.208-57.295 3.17-6.095 4.389-13.166 5.608-17.067l-0.241-0.488z" />
<glyph unicode="&#xe91e;" glyph-name="gloss-finish-1" d="M512-64c-282.322 0-512 229.678-512 512s229.678 512 512 512c282.322 0 512-229.678 512-512s-229.678-512-512-512zM512 905.137c-252.067 0-457.137-205.070-457.137-457.137s205.070-457.138 457.137-457.138c252.067 0 457.138 205.071 457.138 457.138s-205.071 457.137-457.138 457.137zM942.039 459.571c0.117 2.092 0.244 4.196 0.361 6.288-12.729 2.375-25.483 4.632-38.198 7.134-55.362 10.932-102.746 34.989-134.027 83.988-18.898 29.601-29.484 62.486-34.679 97.153-1.373 9.136-3.221 18.205-4.864 27.304-5.118-7.29-6.427-14.68-8.287-21.928-5.851-22.801-10.264-46.139-18.247-68.181-15.306-42.316-43.713-73.738-83.783-95.176-29.060-15.55-60.406-21.953-92.172-27.804-4.698-0.861-9.136-3.106-17.913-6.185 27.714-6.541 50.885-10.828 73.326-17.564 43.625-13.088 79.292-37.644 103.902-76.868 17.847-28.457 28.021-59.648 33.526-92.557 1.731-10.33 3.579-20.631 5.376-30.961 12.278 55.133 24.379 108.79 64.395 150.799 40.943 42.969 95.139 56.054 151.272 64.549l0.012 0.012zM581.656 603.375c-24.722 9.175-50.398 13.922-69.142 33.541-18.31 19.168-24.7 43.61-31.937 68.476-6.992-25.546-13.368-50.334-32.563-69.503-18.771-18.747-44.071-23.608-67.86-32.334 26.046-5.286 49.41-13.497 68.374-31.6 19.424-18.527 24.725-43.805 32.41-69.054 9.443 58.251 41.865 92.006 100.718 100.474zM623.37 659.831c5.644 9.518 9.816 20.129 17.115 27.765 6.902 7.222 17.091 11.327 28.214 18.283-25.841 5.081-37.951 21.105-44.573 46.394-6.992-26.841-22.221-42.201-46.202-49.615 27.148-3.401 37.656-22.543 45.458-42.828h-0.012zM499.722 465.459c19.18 2.938 38.529 5.081 57.507 8.994 33.858 6.992 64.997 20.453 91.724 42.906 29.755 24.993 48.372 57.095 59.521 93.932 7.083 23.415 10.662 47.421 12.42 71.76 0.078 1.078 0.256 2.155 0.475 4.067 1.36-12.098 2.309-23.364 3.964-34.538 5.452-36.966 16.601-71.865 38.529-102.644 25.020-35.106 59.302-57.008 99.923-69.812 24.418-7.697 49.527-11.457 74.981-13.253 1.529-0.102 3.055-0.244 4.786-0.385-11.995-1.334-23.825-2.282-35.552-4.003-39.709-5.825-76.956-18.142-109.097-43.135-31.795-24.725-51.783-57.429-63.729-95.447-7.799-24.815-11.649-50.334-13.253-76.225-0.063-1.104-0.166-2.221-0.897-3.323 0 1.975 0.127 3.964-0.027 5.939-3.925 50.232-15.114 98.077-46.819 138.876-25.083 32.295-58.495 52.234-97.165 64.039-24.069 7.339-48.755 11.059-73.813 12.624-1.243 0.076-2.501 0.18-3.745 0.268 0.088-0.217 0.166-0.422 0.256-0.641h0.012zM456.446 504.825c-5.403 61.689-39.224 94.176-100.591 99.001 61.508 4.862 95.254 37.374 100.579 99.321 5.271-61.857 38.99-94.408 100.474-99.296-61.24-4.901-95.086-37.286-100.462-99.026zM664.749 704.673c-29.499-3.491-46.256-19.502-49.744-49.552-3.669 29.959-20.348 46.343-50.181 49.474 13.1 2.080 25.366 5.427 34.95 14.986 9.406 9.366 13.127 21.299 15.204 34.309 3.594-29.69 20.3-45.728 49.771-49.231v0.015z" />
<glyph unicode="&#xe920;" glyph-name="Check" d="M940.913 834.892c15.923 20.174 45.187 23.639 65.365 7.727 20.178-15.922 23.64-45.186 7.731-65.365l-565.189-716.147c-8.224-10.417-20.527-16.841-33.774-17.636-13.242-0.791-26.183 4.105-35.591 13.457l-365.732 363.734c-18.225 18.125-18.309 47.588-0.181 65.816 18.127 18.223 47.593 18.307 65.819 0.181l328.686-326.911 532.868 675.143z" />
<glyph unicode="&#xe921;" glyph-name="Chevron-Down" d="M944.548 713.638c18.176 18.177 47.639 18.177 65.82 0 18.176-18.178 18.176-47.641 0-65.819l-465.458-465.459c-18.181-18.176-47.645-18.176-65.82 0l-465.458 465.459c-18.177 18.178-18.177 47.641 0 65.819s47.641 18.177 65.819 0l432.547-432.55 432.549 432.55z" />
<glyph unicode="&#xe922;" glyph-name="Chevron-Left" d="M777.638 15.452c18.176-18.176 18.176-47.639 0-65.82-18.176-18.176-47.639-18.176-65.82 0l-465.455 465.458c-18.177 18.181-18.177 47.645 0 65.82l465.455 465.458c18.181 18.177 47.645 18.177 65.82 0s18.176-47.641 0-65.819l-432.548-432.547 432.548-432.549z" />
<glyph unicode="&#xe923;" glyph-name="Chevron-Right" d="M246.362 880.548c-18.177 18.178-18.177 47.641 0 65.818s47.641 18.178 65.819 0l465.459-465.456c18.176-18.181 18.176-47.645 0-65.82l-465.459-465.458c-18.178-18.176-47.641-18.176-65.819 0s-18.177 47.639 0 65.82l432.551 432.545-432.551 432.55z" />
<glyph unicode="&#xe924;" glyph-name="Chevron-Up" d="M79.451 182.362c-18.178-18.176-47.641-18.176-65.818 0s-18.178 47.639 0 65.82l465.456 465.456c18.181 18.177 47.645 18.177 65.82 0l465.458-465.456c18.176-18.181 18.176-47.645 0-65.82s-47.639-18.176-65.82 0l-432.545 432.549-432.55-432.549z" />
<glyph unicode="&#xe925;" glyph-name="Close" d="M1005.39 44.3c24.778-24.771 24.778-64.938 0-89.709-24.771-24.771-64.938-24.771-89.709 0l-897.102 897.104c-24.772 24.774-24.772 64.937 0 89.711s64.937 24.774 89.711 0l897.102-897.104zM18.606 44.3c-24.772-24.771-24.772-64.938 0-89.709s64.937-24.771 89.711 0l897.105 897.104c24.771 24.774 24.771 64.937 0 89.711-24.778 24.774-64.938 24.774-89.709 0l-897.107-897.104z" />
<glyph unicode="&#xe926;" glyph-name="Commercial" d="M502.874 45.731v753.955l-316.957-211.292v-542.664c0-23.565-19.102-42.667-42.667-42.667s-42.667 19.102-42.667 42.667v547.455c-0.013 12.539 3.055 24.895 8.958 35.958l4.958 8c5.393 7.654 12.168 14.275 20 19.5l335.209 223.459c11.469 7.651 24.815 12.077 38.583 12.75l5.167 0.083c12.011-0.228 23.821-3.315 34.458-9 10.637-5.687 19.763-13.806 26.624-23.666l2.795-4.334 2.496-4.5c5.474-10.699 8.367-22.559 8.375-34.625v-771.080c0-23.565-19.102-42.667-42.667-42.667s-42.667 19.102-42.667 42.667zM923.418 45.731c0-23.561-19.11-42.662-42.667-42.667-23.565 0-42.667 19.102-42.667 42.667v493.706h-292.582c-23.565 0-42.667 19.103-42.667 42.667s19.102 42.667 42.667 42.667h301.705l7.543-0.375c17.438-1.733 33.83-9.457 46.332-21.958 14.285-14.288 22.336-33.671 22.336-53.875v-502.831zM981.333 88.398c23.565 0 42.667-19.106 42.667-42.667 0-23.565-19.102-42.667-42.667-42.667h-938.666c-23.564 0-42.667 19.102-42.667 42.667 0 23.561 19.103 42.667 42.667 42.667h938.666zM368.75 414.478v67.042c0 23.565 19.102 42.668 42.667 42.668s42.668-19.103 42.668-42.668v-67.042c0-23.565-19.102-42.667-42.668-42.667-23.564 0-42.667 19.102-42.667 42.667zM234.667 414.478v67.042c0 23.565 19.103 42.668 42.667 42.668s42.667-19.103 42.667-42.668v-67.042c0-23.565-19.103-42.667-42.667-42.667s-42.667 19.102-42.667 42.667zM234.667 179.811v67.042c0 23.565 19.103 42.667 42.667 42.667s42.667-19.102 42.667-42.667v-67.042c0-23.565-19.103-42.667-42.667-42.667s-42.667 19.102-42.667 42.667zM368.75 179.811v67.042c0 23.565 19.102 42.667 42.667 42.667s42.668-19.102 42.668-42.667v-67.042c0-23.565-19.102-42.667-42.668-42.667-23.564 0-42.667 19.102-42.667 42.667z" />
<glyph unicode="&#xe927;" glyph-name="Download" d="M465.452 321.037v592.406c0 25.706 20.839 46.546 46.546 46.546s46.546-20.84 46.546-46.546v-592.406c-0.004-25.703-20.843-46.546-46.546-46.546s-46.54 20.843-46.546 46.546zM1023.997 24.877c0-23.57-9.379-46.201-26.047-62.865-16.664-16.654-39.256-26.001-62.818-26.001h-846.27c-23.559 0-46.155 9.346-62.818 26.001-16.665 16.664-26.045 39.293-26.045 62.865v296.178c0 25.707 20.84 46.546 46.546 46.546s46.546-20.839 46.546-46.546v-291.951h837.817v291.951c0 25.707 20.839 46.546 46.546 46.546s46.546-20.839 46.546-46.546v-296.178zM690.677 565.515c18.176 18.177 47.639 18.175 65.82 0 18.176-18.178 18.176-47.643 0-65.819l-211.549-211.59c-18.176-18.176-47.686-18.176-65.861 0l-211.546 211.59c-18.177 18.176-18.177 47.641 0 65.819s47.641 18.177 65.818 0l178.635-178.589 178.683 178.589z" />
<glyph unicode="&#xe928;" glyph-name="Edit" d="M926.481 810.211c-0.005 6.859-1.375 13.662-4.003 19.999-2.623 6.333-6.485 12.103-11.332 16.951-4.847 4.844-10.62 8.662-16.954 11.285-6.329 2.62-13.097 3.996-19.948 4-6.86 0-13.662-1.376-20.001-4-6.329-2.623-12.102-6.441-16.949-11.285l-53.475-53.426 73.901-73.901 53.426 53.426c4.851 4.85 8.708 10.616 11.332 16.951 2.628 6.338 4.003 13.139 4.003 19.999zM525.065 534.937c-9.278-9.222-15.598-21.021-18.139-33.853v-0.097l-14.525-72.569 72.617 14.525 9.425 2.618c9.22 3.302 17.627 8.626 24.618 15.618l189.705 189.706-73.901 73.902-189.802-189.849zM1024 810.211c0-19.667-3.906-39.161-11.429-57.331-7.529-18.163-18.573-34.667-32.474-48.569l-312.083-312.084c-22.942-22.936-52.095-38.545-83.852-44.903l-144.329-28.9c-15.984-3.199-32.517 1.809-44.046 13.331-11.53 11.526-16.526 28.062-13.333 44.045l28.808 144.329c6.327 31.855 22.052 61.106 45.095 83.996l311.984 311.987c13.901 13.9 30.407 24.951 48.569 32.474 18.168 7.523 37.667 11.38 57.331 11.38 19.655-0.003 39.119-3.86 57.283-11.38 18.163-7.523 34.664-18.575 48.569-32.474 13.907-13.907 24.945-30.448 32.474-48.617 7.519-18.164 11.425-37.624 11.429-57.283zM0 93.787v599.453c0 41.838 16.604 81.982 46.189 111.567s69.727 46.189 111.567 46.189h163.47c26.929 0 48.76-21.831 48.76-48.76s-21.83-48.76-48.76-48.76h-163.47c-15.975 0-31.321-6.322-42.618-17.619s-17.619-26.642-17.619-42.618v-599.453c0-15.968 6.325-31.319 17.619-42.616 11.297-11.298 26.642-17.616 42.618-17.616h599.451c15.974 0 31.323 6.32 42.616 17.616 11.298 11.298 17.616 26.642 17.616 42.616v163.472c0 26.926 21.839 48.755 48.76 48.76 26.93 0 48.76-21.83 48.76-48.76v-163.472c0-41.836-16.603-81.979-46.185-111.562-29.587-29.587-69.726-46.19-111.568-46.19h-599.451c-41.839 0-81.983 16.603-111.567 46.19-29.582 29.583-46.189 69.726-46.189 111.562z" />
<glyph unicode="&#xe929;" glyph-name="Events" d="M102.401 73.314h819.2v665.597h-819.2v-665.597zM1024 57.012c-0.005-55.895-50.826-86.098-93.102-86.098h-837.797c-42.274 0-93.095 30.203-93.1 86.098v698.2c0.006 55.895 50.827 86.1 93.1 86.1h837.797c42.276 0 93.097-30.205 93.102-86.1v-698.2zM712.1 706.336v167.55c0 28.277 22.922 51.2 51.2 51.2s51.2-22.924 51.2-51.2v-167.55c0-28.277-22.922-51.2-51.2-51.2s-51.2 22.922-51.2 51.2zM209.501 706.336v167.55c0 28.277 22.922 51.2 51.2 51.2s51.2-22.924 51.2-51.2v-167.55c0-28.277-22.924-51.2-51.2-51.2s-51.2 22.922-51.2 51.2zM972.8 528.287c28.278 0 51.2-22.922 51.2-51.2s-22.922-51.2-51.2-51.2h-921.599c-28.277 0-51.2 22.922-51.2 51.2s22.924 51.2 51.2 51.2h921.599z" />
<glyph unicode="&#xe92a;" glyph-name="Expand" d="M921.599 601.6v255.999h-255.999c-28.278 0-51.2 22.924-51.2 51.2s22.922 51.2 51.2 51.2h307.2c28.278 0 51.2-22.924 51.2-51.2v-307.2c0-28.277-22.922-51.2-51.2-51.2s-51.2 22.924-51.2 51.2zM0 294.4c0 28.278 22.924 51.2 51.2 51.2s51.2-22.922 51.2-51.2v-255.999h255.999c28.277 0 51.2-22.922 51.2-51.2s-22.924-51.2-51.2-51.2h-307.2c-28.277 0-51.2 22.922-51.2 51.2v307.2zM936.596 945.004c19.993 19.994 52.403 19.994 72.402 0 19.993-19.996 19.993-52.405 0-72.401l-358.4-358.401c-19.999-19.993-52.409-19.993-72.402 0-19.993 19.999-19.993 52.408 0 72.402l358.4 358.4zM373.397 381.803c19.996 19.993 52.404 19.993 72.402 0 19.993-19.993 19.993-52.403 0-72.402l-358.401-358.4c-19.996-19.993-52.405-19.993-72.401 0-19.994 19.999-19.994 52.409 0 72.402l358.4 358.4z" />
<glyph unicode="&#xe92b;" glyph-name="Filter" d="M204.8 806.4c0 28.277-22.924 51.2-51.2 51.2s-51.2-22.924-51.2-51.2c0-28.277 22.924-51.2 51.2-51.2s51.2 22.924 51.2 51.2zM307.2 806.4c0-84.83-68.77-153.6-153.6-153.6s-153.6 68.77-153.6 153.6c0 84.83 68.77 153.6 153.6 153.6s153.6-68.77 153.6-153.6zM921.599 448c0 28.278-22.922 51.2-51.2 51.2s-51.2-22.922-51.2-51.2c0-28.278 22.922-51.2 51.2-51.2s51.2 22.922 51.2 51.2zM1024 448c0-84.833-68.767-153.6-153.6-153.6s-153.6 68.767-153.6 153.6c0 84.833 68.767 153.6 153.6 153.6s153.6-68.767 153.6-153.6zM563.2 89.6c0 28.278-22.922 51.2-51.2 51.2s-51.2-22.922-51.2-51.2c0-28.278 22.922-51.2 51.2-51.2s51.2 22.922 51.2 51.2zM665.6 89.6c0-84.833-68.767-153.6-153.6-153.6s-153.6 68.767-153.6 153.6c0 84.833 68.767 153.6 153.6 153.6s153.6-68.767 153.6-153.6zM972.8 857.599c28.278 0 51.2-22.924 51.2-51.2s-22.922-51.2-51.2-51.2h-716.799c-28.277 0-51.2 22.924-51.2 51.2s22.924 51.2 51.2 51.2h716.799zM767.999 499.2c28.278 0 51.2-22.922 51.2-51.2s-22.922-51.2-51.2-51.2h-716.799c-28.277 0-51.2 22.922-51.2 51.2s22.924 51.2 51.2 51.2h716.799zM972.8 140.8c28.278 0 51.2-22.922 51.2-51.2s-22.922-51.2-51.2-51.2h-358.4c-28.278 0-51.2 22.922-51.2 51.2s22.922 51.2 51.2 51.2h358.4zM409.6 140.8c28.278 0 51.2-22.922 51.2-51.2s-22.922-51.2-51.2-51.2h-358.4c-28.277 0-51.2 22.922-51.2 51.2s22.924 51.2 51.2 51.2h358.4z" />
<glyph unicode="&#xe92c;" glyph-name="Hamburger" d="M186.182 494.547c25.706 0 46.546-20.839 46.546-46.546s-20.84-46.546-46.546-46.546h-139.636c-25.706 0-46.546 20.839-46.546 46.546s20.84 46.546 46.546 46.546h139.636zM977.454 494.547c25.707 0 46.546-20.839 46.546-46.546s-20.839-46.546-46.546-46.546h-605.090c-25.706 0-46.546 20.839-46.546 46.546s20.84 46.546 46.546 46.546h605.090zM977.454 168.729c25.707 0 46.546-20.839 46.546-46.546s-20.839-46.546-46.546-46.546h-930.907c-25.706 0-46.546 20.839-46.546 46.546s20.84 46.546 46.546 46.546h930.907zM977.454 820.364c25.707 0 46.546-20.84 46.546-46.546s-20.839-46.546-46.546-46.546h-930.907c-25.706 0-46.546 20.84-46.546 46.546s20.84 46.546 46.546 46.546h930.907z" />
<glyph unicode="&#xe92d;" glyph-name="Help-Center" d="M512 137.705c32.135 0 58.181 26.047 58.181 58.181s-26.047 58.181-58.181 58.181c-32.135 0-58.181-26.047-58.181-58.181s26.047-58.181 58.181-58.181zM620.59 544.955c0 43.608-42.64 89.228-108.637 89.228-65.988-0.007-108.589-45.622-108.589-89.228v-19.364c0-25.707-20.84-46.546-46.546-46.546s-46.546 20.839-46.546 46.546v19.364c0 106.302 96.339 182.311 201.681 182.318 105.351 0 201.728-76.011 201.728-182.318-0.010-90.387-69.697-158.799-155.317-177.274-1.419-24.427-21.625-43.817-46.411-43.817-25.693 0.010-46.536 20.853-46.546 46.546v38.819c0.010 25.693 20.853 46.536 46.546 46.546 65.992 0 108.627 45.577 108.637 89.182zM930.909 448c0 231.357-187.55 418.909-418.909 418.909-231.357 0-418.909-187.552-418.909-418.909 0-231.359 187.552-418.909 418.909-418.909 231.359 0 418.909 187.55 418.909 418.909zM1024 448c0-282.768-229.232-512-512-512-282.77 0-512 229.232-512 512 0 282.77 229.231 512 512 512s512-229.231 512-512z" />
<glyph unicode="&#xe92e;" glyph-name="Hyperlink" d="M320.984 959.974l5.25-0.25c25.822-2.617 45.948-24.436 45.948-50.947s-20.127-48.33-45.948-50.947l-5.25-0.25h-218.59v-819.16h819.16v218.587c0 28.277 22.921 51.198 51.198 51.198s51.198-22.921 51.198-51.198v-269.785c0-28.277-22.921-51.198-51.198-51.198h-921.554c-28.275 0-51.198 22.921-51.198 51.198v921.554c0 28.275 22.922 51.198 51.198 51.198h269.786zM921.606 557.544v300.035h-300.038c-28.277 0-51.198 22.922-51.198 51.198s22.921 51.198 51.198 51.198l356.431-0.25c25.829-2.613 46.001-24.433 46.001-50.947v-351.232c-0.011-28.263-22.937-51.189-51.198-51.2-28.272 0-51.187 22.931-51.198 51.2zM936.545 944.982c19.992 19.991 52.4 19.985 72.398 0 19.992-19.995 19.992-52.403 0-72.397l-482.777-482.778c-19.992-19.992-52.4-19.992-72.398 0-19.983 19.998-19.987 52.406 0 72.398l482.777 482.776z" />
<glyph unicode="&#xe92f;" glyph-name="Investor-Relations" d="M487.591 905.365c14.96 9.206 33.858 9.206 48.818 0l465.464-286.415c17.73-10.911 26.028-32.286 20.364-52.32-5.67-20.037-23.948-33.909-44.773-33.909h-930.927c-20.825 0-39.102 13.872-44.774 33.909-5.663 20.033 2.635 41.407 20.364 52.32l465.465 286.415zM210.993 625.814h602.012l-301.006 185.276-301.006-185.276zM143.184 221.234v358.053c0 25.707 20.84 46.547 46.547 46.547s46.547-20.839 46.547-46.547v-358.053c-0.002-25.703-20.841-46.547-46.547-46.547s-46.545 20.843-46.547 46.547zM358.006 221.234v358.053c0 25.707 20.839 46.547 46.547 46.547s46.546-20.839 46.546-46.547v-358.053c0-25.703-20.839-46.547-46.546-46.547s-46.545 20.843-46.547 46.547zM572.92 221.234v358.053c0 25.707 20.839 46.547 46.547 46.547s46.547-20.839 46.547-46.547v-358.053c0-25.703-20.839-46.547-46.547-46.547s-46.547 20.843-46.547 46.547zM787.74 221.234v358.053c0 25.707 20.839 46.547 46.547 46.547s46.547-20.839 46.547-46.547v-358.053c0-25.703-20.839-46.547-46.547-46.547-25.703 0-46.541 20.843-46.547 46.547zM941.697 267.78c25.703-0.010 46.547-20.843 46.547-46.547s-20.843-46.537-46.547-46.547h-859.332c-25.707 0-46.547 20.839-46.547 46.547s20.84 46.547 46.547 46.547h859.332zM941.697 76.824c25.703-0.010 46.547-20.848 46.547-46.547 0-25.703-20.843-46.537-46.547-46.547h-859.332c-25.707 0-46.547 20.839-46.547 46.547s20.84 46.547 46.547 46.547h859.332z" />
<glyph unicode="&#xe930;" glyph-name="Language" d="M930.908 448c0 231.357-187.55 418.909-418.909 418.909-231.357 0-418.909-187.552-418.909-418.909 0-231.359 187.552-418.909 418.909-418.909 231.359 0 418.909 187.55 418.909 418.909zM1023.998 448c0-282.768-229.232-511.999-511.999-511.999-282.77 0-511.999 229.232-511.999 511.999 0 282.77 229.23 511.999 511.999 511.999s511.999-229.23 511.999-511.999zM977.454 494.546c25.707 0 46.546-20.839 46.546-46.546s-20.839-46.546-46.546-46.546h-930.908c-25.706 0-46.546 20.839-46.546 46.546s20.84 46.546 46.546 46.546h930.908zM512.009 959.999c13.070 0 25.544-5.489 34.365-15.136 124.034-135.789 194.532-312.039 198.363-495.909 0.014-0.638 0.014-1.271 0-1.908-3.83-183.868-74.328-360.122-198.363-495.909-8.82-9.649-21.295-15.136-34.365-15.136s-25.544 5.487-34.365 15.136c-124.031 135.786-194.532 312.040-198.362 495.909-0.013 0.638-0.013 1.271 0 1.908 3.83 183.869 74.331 360.121 198.362 495.909l3.454 3.409c8.476 7.524 19.465 11.727 30.911 11.727zM512.009 841.090c-87.161-112.342-136.446-250.019-139.636-393.090 3.189-143.062 52.489-280.706 139.636-393.043 87.147 112.337 136.402 249.986 139.589 393.043-3.189 143.072-52.429 280.749-139.589 393.090z" />
<glyph unicode="&#xe931;" glyph-name="Map" d="M535.664-56.832c-14.332-9.557-33.003-9.557-47.334 0l23.667 35.499 23.667-35.499zM853.33 533.334c0 90.527-35.947 177.363-99.959 241.375s-150.848 99.958-241.374 99.958c-90.527 0-177.363-35.946-241.375-99.958s-99.958-150.848-99.958-241.375c0-132.181 85.99-260.459 180.292-360 46.279-48.849 92.724-88.832 127.625-116.625 12.966-10.325 24.337-18.871 33.417-25.583 9.079 6.711 20.45 15.258 33.417 25.583 34.901 27.793 81.348 67.776 127.625 116.625 94.302 99.541 180.292 227.819 180.292 360zM938.665 533.334c0-166.481-106.010-315.541-203.708-418.668-49.719-52.48-99.277-95.168-136.375-124.71-18.573-14.788-34.108-26.364-45.082-34.291-5.483-3.955-9.847-7.023-12.877-9.122-1.51-1.045-2.714-1.856-3.541-2.419-0.414-0.282-0.764-0.508-0.998-0.666-0.115-0.077-0.222-0.162-0.294-0.209l-0.081-0.043v-0.038c-0.013-0.009-0.043-0.004-23.71 35.499-23.667-35.503-23.697-35.507-23.71-35.499v0.038l-0.081 0.043c-0.073 0.047-0.179 0.132-0.294 0.209-0.235 0.158-0.585 0.384-0.998 0.666-0.828 0.563-2.031 1.374-3.541 2.419-3.029 2.099-7.394 5.167-12.877 9.122-10.974 7.927-26.509 19.503-45.082 34.291-37.097 29.542-86.656 72.23-136.375 124.71-97.697 103.125-203.708 252.186-203.708 418.668 0 113.159 44.943 221.693 124.958 301.708s188.55 124.958 301.708 124.958c113.161 0 221.692-44.943 301.709-124.958s124.958-188.55 124.958-301.708zM511.997 469.334c47.13 0 85.333 38.204 85.333 85.333s-38.204 85.333-85.333 85.333-85.333-38.205-85.333-85.333c0-47.13 38.204-85.333 85.333-85.333z" />
<glyph unicode="&#xe932;" glyph-name="Marine" d="M469.355 809.035v108.296c0 23.565 19.103 42.669 42.669 42.669s42.669-19.104 42.669-42.669v-108.296c0-23.565-19.103-42.669-42.669-42.669s-42.669 19.104-42.669 42.669zM498.48 668.96c8.768 2.927 18.275 2.927 27.043 0l408.515-136.382c13.748-4.582 25.947-12.831 35.252-23.835l3.793-4.873 3.413-5.167c7.454-12.292 11.426-26.424 11.418-40.877v-154.715c0-3.959-0.538-7.902-1.626-11.708-37.416-131.15-141.834-216.308-237.343-269.135-96.217-53.224-190.374-77.571-219.132-84.253l-0.043 0.038c-11.725-2.731-23.903-2.743-35.623 0v-0.038c-28.728 6.699-122.873 31.071-219.094 84.291-95.504 52.828-199.927 137.947-237.343 269.097-1.086 3.806-1.625 7.748-1.625 11.708v154.715c-0.008 16.522 5.183 32.628 14.834 46.044l3.791 4.873c9.3 10.995 21.476 19.252 35.21 23.835l408.557 136.382zM121.423 453.159v-143.716c29.689-96.486 109.411-165.165 194.925-212.468 84.734-46.867 168.666-69.068 195.675-75.459 26.979 6.366 110.903 28.549 195.635 75.421 85.516 47.302 165.229 116.016 194.922 212.506v143.716l-390.599 130.38-390.557-130.38zM469.355 267.449v361.059c0 23.565 19.103 42.669 42.669 42.669s42.669-19.104 42.669-42.669v-361.059c-0.009-23.557-19.107-42.669-42.669-42.669s-42.66 19.111-42.669 42.669zM879.619 520.17c-0.004-23.562-19.107-42.669-42.669-42.669-23.553 0.009-42.66 19.111-42.669 42.669v246.177h-564.522v-246.177c-0.007-23.562-19.108-42.669-42.669-42.669s-42.662 19.107-42.669 42.669v252.76c0.005 20.885 8.316 40.901 23.085 55.669s34.784 23.079 55.669 23.085h577.688c18.279-0.002 35.905-6.351 49.922-17.834l5.79-5.25 5.21-5.75c11.486-14.015 17.827-31.639 17.831-49.919v-252.76z" />
<glyph unicode="&#xe933;" glyph-name="Minus" d="M977.454 494.546c25.707 0 46.546-20.839 46.546-46.546s-20.839-46.546-46.546-46.546h-930.908c-25.706 0-46.546 20.839-46.546 46.546s20.84 46.546 46.546 46.546h930.908z" />
<glyph unicode="&#xe934;" glyph-name="Newsroom" d="M762.646 584.062c25.706-0.002 46.544-20.84 46.544-46.544 0-25.706-20.838-46.544-46.544-46.544h-358.028c-25.705 0-46.544 20.838-46.544 46.544s20.838 46.544 46.544 46.544h358.028zM762.646 397.888c25.706 0 46.544-20.838 46.544-46.544s-20.838-46.544-46.544-46.544h-358.028c-25.705 0-46.544 20.838-46.544 46.544s20.838 46.544 46.544 46.544h358.028zM930.914 723.692h-694.606v-526.294c0-8.489-0.955-16.877-2.727-25.045h672.242c6.647 0 13.027 2.62 17.729 7.316 4.701 4.701 7.363 11.082 7.363 17.729v526.294zM1024 197.398c0-31.337-12.478-61.386-34.638-83.54-22.154-22.154-52.207-34.591-83.54-34.591h-787.646c-25.705 0-46.544 20.838-46.544 46.544 0.012 25.696 20.845 46.544 46.544 46.544 6.647 0 13.027 2.616 17.726 7.316s7.317 11.082 7.317 17.729v537.021c0 21.836 8.699 42.782 24.135 58.225 15.442 15.442 36.387 24.134 58.225 24.135h716.057c19.106-0.001 37.532-6.635 52.18-18.635l6.046-5.499 5.455-6.046c12.004-14.652 18.682-33.073 18.682-52.179v-537.021zM0 197.398v429.617c0 25.705 20.839 46.544 46.544 46.544s46.544-20.838 46.544-46.544v-429.617c0-6.642 2.628-13.027 7.317-17.729 4.696-4.696 11.085-7.359 17.726-7.363 25.705 0 46.544-20.838 46.544-46.544-0.008-25.696-20.843-46.544-46.544-46.544-31.328 0.004-61.389 12.483-83.542 34.638-22.148 22.154-34.589 52.212-34.589 83.54z" />
<glyph unicode="&#xe935;" glyph-name="Pause" d="M405.333 21.333h-192v853.333h192v-853.333zM810.667 874.667v-853.333h-192v853.333h192z" />
<glyph unicode="&#xe936;" glyph-name="Phone" d="M253.131 959.393c16.339 1.941 32.86-0.795 47.636-7.818l6.182-3.273 5.954-3.772c13.227-9.149 23.643-21.833 30.136-36.635h0.045l107.226-239.496c5.645-13.187 7.936-27.573 6.684-41.863-1.257-14.287-6.014-28.043-13.865-40.045-1.015-1.551-2.127-3.036-3.318-4.454l-102.498-121.817c37.354-73.484 114.398-149.702 188.358-186.812l120.044 102.087c1.387 1.177 2.853 2.263 4.366 3.272 12.046 8.015 25.906 12.916 40.317 14.228l10.817 0.316c7.205-0.242 14.35-1.359 21.276-3.361l10.179-3.64 0.638-0.316 238.541-106.908c14.824-6.489 27.522-16.937 36.682-30.179l3.77-5.953 3.272-6.185c7.023-14.773 9.76-31.297 7.819-47.634-0.028-0.224-0.060-0.456-0.088-0.68-9.36-69.924-43.804-134.063-96.91-180.5-53.094-46.424-121.239-71.995-191.769-71.953-194.831 0-381.679 77.413-519.444 215.18-133.456 133.457-210.275 312.956-214.951 501.171l-0.227 18.272c-0.043 70.529 25.527 138.675 71.953 191.77 46.436 53.104 110.577 87.549 180.496 96.907l0.682 0.091zM259.722 866.258c-45.574-7.307-87.224-30.31-117.68-65.136-31.58-36.116-48.985-82.477-48.954-130.452v-0.046c0-170.141 67.597-333.321 187.906-453.63s283.484-187.906 453.628-187.906h0.047c47.974-0.028 94.337 17.375 130.451 48.956 34.834 30.463 57.79 72.135 65.092 117.725l-230.634 103.362-120.183-102.272c-1.308-1.113-2.709-2.127-4.133-3.090-12.479-8.425-26.94-13.46-41.956-14.592-15.006-1.127-30.040 1.68-43.636 8.136l-0.275 0.093c-95.189 45.911-191.417 140.923-237.902 236.088l-0.136 0.269c-6.483 13.516-9.349 28.499-8.318 43.454l0.591 5.59c1.743 12.958 6.388 25.381 13.636 36.319l3.182 4.226 102.589 122.090-103.316 230.815z" />
<glyph unicode="&#xe937;" glyph-name="Placeholder" d="M930.909 448c0 231.357-187.55 418.909-418.909 418.909-231.357 0-418.909-187.552-418.909-418.909 0-231.359 187.552-418.909 418.909-418.909 231.359 0 418.909 187.55 418.909 418.909zM1024 448c0-282.768-229.232-512-512-512-282.77 0-512 229.232-512 512 0 282.77 229.231 512 512 512s512-229.231 512-512z" />
<glyph unicode="&#xe938;" glyph-name="Play" d="M955.392 447.999l-886.785 512.001v-1024l886.785 512.001z" />
<glyph unicode="&#xe939;" glyph-name="Plus" d="M558.545-17.454c0-25.707-20.839-46.546-46.546-46.546s-46.546 20.839-46.546 46.546v930.908c0 25.706 20.839 46.546 46.546 46.546s46.546-20.84 46.546-46.546v-930.908zM977.454 471.273c25.707 0 46.546-20.839 46.546-46.546s-20.839-46.546-46.546-46.546h-930.908c-25.706 0-46.546 20.839-46.546 46.546s20.84 46.546 46.546 46.546h930.908z" />
<glyph unicode="&#xe93a;" glyph-name="Residential" d="M923.46 62.459c-0.013-23.548-19.119-42.654-42.667-42.667-23.561 0-42.658 19.115-42.667 42.667v417.041l-326.17 307.96-326.041-307.918v-417.084c-0.011-23.552-19.109-42.667-42.667-42.667s-42.656 19.115-42.667 42.667v421.001c-0.004 10.586 2.19 21.065 6.458 30.75l3.583 7.083c3.817 6.682 8.678 12.706 14.333 17.96l-0.083 0.042 335.835 317.083c14.025 12.764 32.324 19.833 51.29 19.833l7.083-0.333c14.054-1.314 27.477-6.506 38.75-15l5.457-4.5 0.542-0.542 335.211-316.541c7.586-7.037 13.683-15.532 17.873-24.999 4.297-9.711 6.541-20.215 6.545-30.835v-421.001zM981.333 105.147c23.565 0 42.667-19.102 42.667-42.667s-19.102-42.667-42.667-42.667h-938.666c-23.564 0-42.667 19.102-42.667 42.667s19.103 42.667 42.667 42.667h938.666zM655.206 62.459c-0.009-23.556-19.106-42.667-42.667-42.667-23.548 0.013-42.654 19.119-42.667 42.667v225.545h-115.789v-225.545c-0.009-23.556-19.11-42.667-42.668-42.667s-42.657 19.11-42.667 42.667v234.667c0 20.207 8.045 39.586 22.333 53.875s33.668 22.336 53.874 22.336h134.084c17.681-0.004 34.735-6.14 48.29-17.25l5.585-5.086 5.039-5.581c11.11-13.559 17.25-30.613 17.25-48.294v-234.667z" />
<glyph unicode="&#xe93b;" glyph-name="Search" d="M768.005 524.784c0 183.802-148.998 332.802-332.802 332.802-183.802 0-332.802-149-332.802-332.802 0-183.804 149-332.802 332.802-332.802 183.804 0 332.802 148.998 332.802 332.802zM870.406 524.784c0-240.354-194.848-435.203-435.203-435.203s-435.203 194.848-435.203 435.203c0 240.356 194.846 435.203 435.203 435.203s435.203-194.846 435.203-435.203zM713.901 246.111c19.993 19.993 52.403 19.993 72.398 0l222.706-222.701c19.993-19.993 19.993-52.403 0-72.402-19.999-19.993-52.409-19.993-72.402 0l-222.701 222.701c-19.993 19.999-19.993 52.409 0 72.402z" />
<glyph unicode="&#xe93c;" glyph-name="Share" d="M884.363 773.818c0 51.412-41.677 93.090-93.090 93.090s-93.090-41.678-93.090-93.090c0-51.412 41.677-93.090 93.090-93.090s93.090 41.678 93.090 93.090zM977.454 773.818c0-102.826-83.358-186.182-186.182-186.182s-186.182 83.356-186.182 186.182c0 102.826 83.358 186.182 186.182 186.182s186.182-83.356 186.182-186.182zM325.818 448c0 51.414-41.678 93.090-93.090 93.090s-93.090-41.677-93.090-93.090c0-51.414 41.678-93.090 93.090-93.090s93.090 41.677 93.090 93.090zM418.91 448c0-102.823-83.356-186.182-186.182-186.182s-186.182 83.358-186.182 186.182c0 102.826 83.356 186.182 186.182 186.182s186.182-83.356 186.182-186.182zM884.363 122.182c0 51.414-41.677 93.090-93.090 93.090s-93.090-41.677-93.090-93.090c0-51.414 41.677-93.090 93.090-93.090s93.090 41.677 93.090 93.090zM977.454 122.182c0-102.823-83.358-186.182-186.182-186.182s-186.182 83.358-186.182 186.182c0 102.823 83.358 186.182 186.182 186.182s186.182-83.358 186.182-186.182zM313.064 401.162c12.945 22.207 41.475 29.714 63.682 16.775l317.865-185.274c22.207-12.939 29.752-41.425 16.816-63.637-12.945-22.207-41.472-29.714-63.684-16.771l-317.908 185.227c-22.202 12.945-29.713 41.472-16.773 63.678zM647.266 743.714c22.202 12.951 50.678 5.473 63.637-16.727 12.949-22.197 5.46-50.676-16.728-63.636l-317.454-185.274c-22.195-12.949-50.675-5.456-63.636 16.728-12.957 22.202-5.474 50.725 16.728 63.682l317.455 185.227z" />
<glyph unicode="&#xe93d;" glyph-name="Shipping" d="M682.668 874.667c23.565 0 42.667-19.103 42.667-42.667v-554.668c0-23.565-19.102-42.667-42.667-42.667h-640.001c-23.564 0-42.667 19.102-42.667 42.667v554.668c0 23.564 19.103 42.667 42.667 42.667h640.001zM85.334 320h554.668v469.333h-554.668v-469.333zM853.334 661.333l4.207-0.208c9.771-0.968 18.957-5.289 25.958-12.292l128-128.001c8.004-8 12.501-18.85 12.501-30.165v-213.333c0-23.565-19.102-42.667-42.667-42.667h-298.667c-23.565 0-42.667 19.102-42.667 42.667v341.333c0 23.564 19.102 42.667 42.667 42.667h170.667zM725.334 320h213.333v152.998l-103.002 103.002h-110.332v-256zM298.668 170.667c0 35.345-28.654 64-64 64s-64-28.655-64-64c0-35.345 28.654-64 64-64s64 28.655 64 64zM384.001 170.667c0-82.475-66.859-149.333-149.333-149.333s-149.333 66.859-149.333 149.333c0 82.475 66.859 149.333 149.333 149.333s149.333-66.859 149.333-149.333zM853.334 170.667c0 35.345-28.655 64-64 64s-64-28.655-64-64c0-35.345 28.655-64 64-64s64 28.655 64 64zM938.668 170.667c0-82.475-66.859-149.333-149.333-149.333s-149.333 66.859-149.333 149.333c0 82.475 66.859 149.333 149.333 149.333s149.333-66.859 149.333-149.333z" />
<glyph unicode="&#xe93e;" glyph-name="Sort" d="M383.635 207.735c19.995 19.988 52.407 19.993 72.4 0 19.983-19.993 19.983-52.407 0-72.4l-184.347-184.294c-19.995-19.993-52.404-19.993-72.399 0l-184.294 184.294c-19.994 19.999-19.994 52.407 0 72.4s52.404 19.993 72.399 0l148.095-148.097 148.146 148.097zM184.294-12.787v921.572c0 28.276 22.922 51.199 51.199 51.199s51.199-22.923 51.199-51.199v-921.572l-0.25-5.247c-2.629-25.815-24.444-45.95-50.948-45.95s-48.32 20.137-50.948 45.95l-0.25 5.247zM752.268 944.993c19.988 19.991 52.401 19.984 72.395 0l184.346-184.294c19.993-19.989 19.983-52.402 0-72.397-19.993-19.994-52.401-19.994-72.395 0l-148.148 148.146-148.097-148.146c-19.993-19.994-52.401-19.994-72.395 0-19.988 19.995-19.993 52.407 0 72.397l184.294 184.294zM737.277-12.787v921.572c0 28.276 22.922 51.199 51.199 51.199s51.199-22.923 51.199-51.199v-921.572l-0.251-5.247c-2.627-25.815-24.442-45.95-50.948-45.95s-48.321 20.137-50.948 45.95l-0.251 5.247z" />
<glyph unicode="&#xe93f;" glyph-name="Star" d="M554.732 923.071l88.381-302.44 333.249-7.297c46.218-0.811 64.868-60.002 28.38-87.568l-254.6-191.359 91.62-330.009c12.976-45.407-40.54-80.272-77.028-51.082l-238.383 191.355-265.954-197.028c-38.109-28.38-90.002 8.919-75.407 53.515l97.3 305.68-264.332 214.872c-35.677 29.191-14.595 86.76 31.623 86.76l308.116-4.054 103.786 320.28c14.598 45.407 79.461 44.595 93.248-1.622z" />
<glyph unicode="&#xe940;" glyph-name="Star-Empty" d="M422.044 895.736c26.725 82.875 140.683 82.341 170.748 5.21l2.63-7.702 0.088-0.272 70.764-242.325 269.053-5.89c86.852-1.669 120.327-111.92 52.731-163l-0.088-0.088-206.218-154.938 74.794-269.235 1.902-7.974c16.306-81.605-80-139.885-145.558-87.432l-0.047 0.041-188.868 151.585-212.923-157.791c-70.32-52.342-167.937 15.995-140.348 100.305l78.736 247.486-215.868 175.457c-67.204 54.991-26.153 161.143 58.123 161.144h0.589l245.904-3.216 83.853 258.634zM405.42 543.416l-308.876 4.122 260.537-211.747-95.997-301.396 265.202 196.476 239.062-191.902-89.881 323.868 251.796 189.277-330.937 7.249-88.113 301.491-102.794-317.437z" />
<glyph unicode="&#xe941;" glyph-name="Tag" d="M927.267 427.857c0 12.735-5.030 24.957-13.978 34.006l-401.289 401.289h-415.269v-415.223l401.335-400.864c4.494-4.494 9.813-8.096 15.681-10.53s12.164-3.685 18.515-3.685c6.35 0 12.653 1.257 18.519 3.685 5.872 2.433 11.235 6.036 15.728 10.53l346.781 346.785c8.947 9.049 13.978 21.272 13.978 34.006zM1023.999 427.857c0-38.335-15.201-75.122-42.224-102.305l-34.292 34.098 34.195-34.195-346.732-346.781c-13.47-13.484-29.489-24.154-47.089-31.457-17.615-7.304-36.526-11.1-55.597-11.1-19.061 0-37.933 3.802-55.543 11.1-17.606 7.298-33.62 17.973-47.089 31.457l-415.459 414.986c-9.070 9.069-14.17 21.368-14.17 34.195v483.662c0 26.712 21.655 48.367 48.367 48.367l488.432-0.237c11.076-1.097 21.489-5.994 29.426-13.933l415.552-415.554c27.022-27.187 42.224-63.969 42.224-102.305zM300.304 732.272c40.068 0 72.549-32.482 72.549-72.549s-32.482-72.549-72.549-72.549c-40.068 0-72.549 32.482-72.549 72.549s32.482 72.549 72.549 72.549z" />
<glyph unicode="&#xe942;" glyph-name="Tesla" d="M512.001-61.704l143.298 805.736c136.668 0 179.507-14.789 186.137-75.984 0 0 91.795 34.168 137.688 103.522-180.523 83.634-361.561 87.203-361.561 87.203l-105.561-129.020-105.562 129.020c0 0-181.035-3.57-361.561-87.203 46.407-69.355 137.689-103.522 137.689-103.522 6.12 61.195 49.466 75.984 185.115 75.984l144.318-806.248v0.512zM512.001 895.999c145.849 1.019 312.605-22.438 483.443-96.892 22.946 41.306 28.556 59.155 28.556 59.155-186.644 73.944-361.054 99.442-512 99.953-150.438-0.51-325.354-26.008-512-99.953 0 0 8.159-22.438 28.558-59.155 170.837 74.454 337.593 97.913 483.442 96.892z" />
<glyph unicode="&#xe943;" glyph-name="User" d="M930.91 448.001c0 231.356-187.55 418.909-418.909 418.909-231.356 0-418.909-187.552-418.909-418.909 0-107.446 40.456-205.358 106.999-279.547 78.917 81.412 189.472 132.137 311.909 132.137 122.424 0 232.946-50.739 311.863-132.137 66.555 74.188 107.045 172.092 107.045 279.547zM512.001 207.501c-94.779 0-180.469-38.642-242.364-101.092 68.43-48.649 151.986-77.317 242.364-77.317 90.363 0 173.894 28.677 242.32 77.317-61.896 62.436-147.554 101.092-242.32 101.092zM620.591 564.365c0 59.981-48.608 108.591-108.59 108.591s-108.591-48.61-108.591-108.591c0-59.984 48.608-108.59 108.591-108.59s108.59 48.608 108.59 108.59zM1024 448.001c0-152.148-66.448-288.833-171.73-382.547-90.424-80.482-209.678-129.453-340.27-129.453s-249.847 48.971-340.273 129.453c-105.28 93.714-171.727 230.4-171.727 382.547 0 282.77 229.23 511.999 511.999 511.999s511.999-229.23 511.999-511.999zM713.683 564.365c0-111.393-90.289-201.682-201.682-201.682s-201.682 90.289-201.682 201.682 90.288 201.682 201.682 201.682c111.393 0 201.682-90.288 201.682-201.682z" />
<glyph unicode="&#xe944;" glyph-name="Videos" d="M412.499 747.623c15.132 8.095 33.494 7.201 47.774-2.318l232.727-155.136c12.945-8.629 20.722-23.17 20.726-38.727 0-15.559-7.783-30.095-20.726-38.729l-232.727-155.177c-14.28-9.514-32.647-10.407-47.774-2.318-15.13 8.095-24.586 23.882-24.591 41.043v310.318c0 17.165 9.457 32.945 24.591 41.045zM481.001 483.258l102.269 68.183-102.269 68.182v-136.365zM93.091 287.693h837.818v527.499h-837.818v-527.499zM1023.999 279.92c0-47.123-38.195-85.308-85.318-85.318h-853.363c-47.121 0.010-85.318 38.195-85.318 85.318v543.046c0.009 47.116 38.201 85.31 85.318 85.318h853.363c47.117-0.009 85.308-38.201 85.318-85.318v-543.046zM977.455 80.808c25.707 0 46.546-20.839 46.546-46.546s-20.839-46.546-46.546-46.546h-930.908c-25.706 0-46.546 20.839-46.546 46.546s20.84 46.546 46.546 46.546h930.908z" />
<glyph unicode="&#xe945;" glyph-name="Visibility" d="M512.004 793.036c181.757 0 309.34-82.214 390.425-163.301 40.412-40.413 69.568-80.732 88.65-111.041 9.563-15.191 16.642-27.986 21.433-37.13 2.395-4.568 4.217-8.241 5.48-10.868 0.628-1.304 1.122-2.359 1.479-3.129 0.173-0.383 0.325-0.717 0.436-0.957 0.053-0.12 0.134-0.222 0.173-0.307 0.018-0.040 0.027-0.094 0.040-0.129v-0.045c0.009-0.018 0.035-0.049-40.648-18.129 40.683-18.080 40.656-18.111 40.648-18.129v-0.045c-0.014-0.035-0.022-0.089-0.040-0.129-0.040-0.085-0.12-0.187-0.173-0.307-0.112-0.24-0.263-0.574-0.436-0.957-0.356-0.77-0.85-1.825-1.479-3.129-1.265-2.626-3.086-6.299-5.48-10.868-4.791-9.145-11.869-21.94-21.433-37.13-19.082-30.309-48.238-70.627-88.65-111.040-81.086-81.090-208.67-163.302-390.425-163.302-181.762 0-309.342 82.212-390.429 163.302-40.413 40.412-69.567 80.729-88.65 111.040-9.563 15.191-16.644 27.986-21.435 37.13-2.393 4.568-4.212 8.241-5.478 10.868-0.627 1.304-1.122 2.359-1.479 3.129-0.175 0.383-0.325 0.717-0.435 0.957-0.053 0.12-0.137 0.222-0.174 0.307-0.019 0.040-0.028 0.094-0.044 0.129v0.045c-0.009 0.018-0.032 0.049 40.651 18.129-40.683 18.080-40.66 18.111-40.651 18.129v0.045c0.015 0.035 0.024 0.089 0.044 0.129 0.038 0.085 0.121 0.187 0.174 0.307 0.11 0.24 0.26 0.574 0.435 0.957 0.357 0.77 0.851 1.825 1.479 3.129 1.266 2.626 3.086 6.299 5.478 10.868 4.791 9.145 11.871 21.94 21.435 37.13 19.084 30.308 48.237 70.627 88.65 111.041 81.087 81.087 208.668 163.301 390.429 163.301zM512.004 703.994c-152.149 0-258.303-68.044-327.475-137.215-34.714-34.716-59.821-69.527-76.215-95.563-5.63-8.945-10.192-16.807-13.739-23.218 3.547-6.411 8.109-14.273 13.739-23.218 16.394-26.035 41.501-60.847 76.215-95.564 69.171-69.168 175.325-137.214 327.475-137.214 152.146 0 258.296 68.046 327.468 137.214 34.713 34.717 59.822 69.529 76.215 95.564 5.627 8.935 10.151 16.811 13.7 23.218-3.549 6.407-8.071 14.282-13.7 23.218-16.393 26.035-41.502 60.847-76.215 95.563-69.172 69.171-175.323 137.215-327.468 137.215zM44.532 447.999l-40.695-18.084c-5.116 11.508-5.116 24.66 0 36.168l40.695-18.084zM1020.164 466.083c5.115-11.508 5.115-24.66 0-36.168l-40.692 18.084 40.692 18.084zM634.422 447.999c0 67.618-54.814 122.432-122.432 122.432s-122.432-54.814-122.432-122.432c0-67.618 54.814-122.432 122.432-122.432s122.432 54.814 122.432 122.432zM723.464 447.999c0-116.796-94.678-211.474-211.474-211.474-116.794 0-211.474 94.678-211.474 211.474 0 116.794 94.68 211.474 211.474 211.474 116.796 0 211.474-94.68 211.474-211.474z" />
<glyph unicode="&#xe946;" glyph-name="Visibility-Off" d="M124.831 854.534c18.479 16.797 47.101 15.431 63.899-3.047l678.296-746.124c16.794-18.477 15.429-47.101-3.048-63.899-18.481-16.794-47.101-15.429-63.899 3.048l-678.294 746.124c-16.797 18.479-15.431 47.101 3.047 63.899zM349.881 606.973c18.479 16.797 47.1 15.431 63.899-3.047s15.429-47.1-3.048-63.899c-24.404-22.187-39.014-53.166-40.582-86.113-1.563-32.933 10.015-65.152 32.192-89.553 22.187-24.405 53.171-39.011 86.113-40.584 32.943-1.57 65.194 10.007 89.598 32.191 18.472 16.794 47.056 15.461 63.855-3.002 16.799-18.477 15.469-47.096-3.002-63.899-42.154-38.324-97.828-58.306-154.737-55.598-56.899 2.713-110.406 27.887-148.729 70.040s-58.306 97.828-55.598 154.733c2.713 56.905 27.886 110.411 70.037 148.732zM481.873 623.104c4.702 24.52 28.425 40.598 52.947 35.902 45.659-8.747 87.251-32.104 118.525-66.505 31.269-34.401 50.523-78.025 54.892-124.311 2.338-24.857-15.904-46.888-40.761-49.235-24.866-2.346-46.938 15.894-49.284 40.756-2.528 26.802-13.688 52.065-31.794 71.981-18.106 19.911-42.194 33.403-68.625 38.465-24.518 4.704-40.598 28.424-35.9 52.947zM494.34 798.416c184.609 0 314.195-83.462 396.558-165.819 41.046-41.045 70.656-82 90.041-112.783 9.713-15.429 16.903-28.425 21.769-37.713 2.438-4.648 4.323-8.371 5.612-11.038 0.638-1.329 1.135-2.396 1.502-3.184 0.181-0.389 0.325-0.724 0.439-0.968 0.054-0.118 0.095-0.226 0.136-0.312l0.040-0.131 0.046-0.046c0.010-0.018-0.010-0.050-41.336-18.414l41.336 18.368c4.549-10.228 5.133-21.733 1.723-32.277l-1.723-4.463-0.046-0.086c-0.014-0.036-0.022-0.086-0.040-0.131-0.046-0.1-0.118-0.217-0.176-0.357-0.131-0.285-0.317-0.688-0.533-1.144-0.425-0.922-1.004-2.189-1.764-3.758-1.524-3.138-3.726-7.533-6.625-12.983-5.815-10.916-14.506-26.114-26.186-43.981-23.306-35.646-59.025-82.471-108.852-127.094-18.603-16.654-47.195-15.108-63.859 3.491-16.658 18.603-15.072 47.195 3.537 63.855 42.575 38.124 73.36 78.425 93.487 109.205 8.054 12.323 14.258 23.090 18.852 31.401-3.595 6.494-8.167 14.484-13.865 23.537-16.65 26.444-42.199 61.802-77.457 97.062-70.257 70.254-178.080 139.368-332.613 139.368h-0.040c-26.878 0.037-53.721-2.161-80.238-6.536-24.641-4.064-47.911 12.632-51.978 37.271-4.063 24.636 12.594 47.904 37.227 51.975 31.405 5.18 63.199 7.723 95.029 7.684zM280.273 744.846c22.279 11.279 49.525 2.358 60.808-19.916 11.278-22.279 2.358-49.525-19.916-60.808-78.619-39.801-135.19-97.424-172.311-145.861-18.486-24.12-31.922-45.649-40.627-60.938-0.914-1.606-1.708-3.178-2.517-4.64 3.602-6.507 8.191-14.543 13.91-23.623 16.65-26.444 42.164-61.77 77.411-97.018 70.256-70.257 178.076-139.371 332.612-139.371h0.353c72.288-0.565 143.685 16.076 208.258 48.575 22.302 11.214 49.488 2.248 60.717-20.046 11.228-22.306 2.216-49.493-20.091-60.721-77.289-38.902-162.713-58.826-249.237-58.202v-0.046l-0.131 0.046c-0.077 0-0.149-0.046-0.221-0.046v0.046c-184.426 0.108-313.895 83.512-396.202 165.821-41.045 41.046-70.66 82.001-90.041 112.782-9.705 15.415-16.906 28.384-21.771 37.668-2.434 4.648-4.279 8.415-5.564 11.088-0.64 1.325-1.139 2.392-1.502 3.178-0.181 0.389-0.329 0.724-0.441 0.972-0.056 0.122-0.138 0.221-0.177 0.307-0.019 0.040-0.030 0.1-0.045 0.131v0.046c0.191 0.108 2.946 1.375 41.29 18.414-38.136 16.953-41.070 18.26-41.29 18.372v0.046l0.133 0.262c0.069 0.154 0.161 0.349 0.265 0.574 0.211 0.461 0.481 1.095 0.839 1.854 0.724 1.538 1.757 3.695 3.092 6.358 2.667 5.327 6.59 12.816 11.791 21.949 10.393 18.25 26.055 43.298 47.428 71.186 42.61 55.593 108.978 123.868 203.179 171.561zM54.836 452.685l-41.334-18.368c-5.191 11.689-5.195 25.051 0 36.741l41.334-18.372z" />
<glyph unicode="&#xe947;" glyph-name="Warranty" d="M484.566 951.050c17.483 12.776 41.766 11.878 58.276-2.727 111.744-98.863 257.596-150.322 406.642-143.503l7.908-0.317c18.125-2.266 33.573-15.095 38.866-33.091 25.215-85.781 32.926-175.775 22.681-264.595s-38.242-174.674-82.321-252.457c-44.079-77.793-103.342-145.937-174.273-200.367-70.936-54.436-152.132-94.051-238.684-116.506-7.662-1.983-15.709-1.983-23.367 0-86.547 22.453-167.706 62.074-238.639 116.506s-130.193 122.574-174.276 200.367c-44.080 77.789-72.073 163.638-82.32 252.457-10.244 88.821-2.532 178.813 22.683 264.595l2.864 7.41c8.042 16.4 25.172 26.856 43.91 26 149.045-6.82 294.898 44.64 406.644 143.503l3.407 2.727zM465.431 819.639c-105.985-69.187-229.868-106.995-357.234-108.411-14.501-63.421-18.155-128.932-10.682-193.73 8.815-76.429 32.935-150.293 70.864-217.231 37.932-66.938 88.92-125.572 149.957-172.412 44.835-34.407 94.415-61.93 147.094-81.773v773.556zM558.524 46.082c52.691 19.843 102.295 47.36 147.138 81.773 61.036 46.835 112.027 105.479 149.958 172.412s62.051 140.803 70.867 217.231c7.471 64.799 3.775 130.307-10.729 193.73-127.365 1.421-251.252 39.22-357.233 108.411v-773.556z" />
<glyph unicode="&#xe948;" glyph-name="Zoom-In" d="M460.802 960c254.495 0 460.8-206.308 460.8-460.8 0-108.79-37.698-208.774-100.746-287.601l188.149-188.196c19.993-19.993 19.993-52.414 0-72.407-18.457-18.457-47.498-19.876-67.584-4.26l-4.823 4.26-188.196 188.149c-78.828-63.048-178.811-100.746-287.601-100.746-254.493 0-460.8 206.305-460.8 460.8 0 254.493 206.308 460.8 460.8 460.8zM460.802 857.599c-197.939 0-358.401-160.462-358.401-358.401s160.462-358.401 358.401-358.401c197.939 0 358.401 160.461 358.401 358.401s-160.461 358.401-358.401 358.401zM460.802 703.999c28.278 0 51.2-22.924 51.2-51.2v-102.4h102.4c28.278 0 51.2-22.922 51.2-51.2s-22.922-51.2-51.2-51.2h-102.4v-102.4c0-28.278-22.922-51.2-51.2-51.2s-51.2 22.922-51.2 51.2v102.4h-102.4c-28.277 0-51.2 22.922-51.2 51.2s22.924 51.2 51.2 51.2h102.4v102.4c0 28.277 22.922 51.2 51.2 51.2z" />
<glyph unicode="&#xe949;" glyph-name="Zoom-Out" d="M460.802 960c254.495 0 460.8-206.308 460.8-460.8 0-108.79-37.698-208.774-100.746-287.601l188.149-188.196c19.993-19.993 19.993-52.414 0-72.407-18.457-18.457-47.498-19.876-67.584-4.26l-4.823 4.26-188.196 188.149c-78.828-63.048-178.811-100.746-287.601-100.746-254.493 0-460.8 206.305-460.8 460.8 0 254.493 206.308 460.8 460.8 460.8zM460.802 857.599c-197.939 0-358.401-160.462-358.401-358.401s160.462-358.401 358.401-358.401c197.939 0 358.401 160.461 358.401 358.401s-160.461 358.401-358.401 358.401zM614.402 550.399c28.278 0 51.2-22.922 51.2-51.2s-22.922-51.2-51.2-51.2h-307.2c-28.277 0-51.2 22.922-51.2 51.2s22.924 51.2 51.2 51.2h307.2z" />
<glyph unicode="&#xe94a;" glyph-name="Aircraft" d="M930.909 791.866c0 19.902-7.927 38.972-21.997 53.046-14.075 14.073-33.145 21.996-53.048 22-19.908 0-39.014-7.923-53.090-22l-155.775-165.864c-12.74-13.564-32.373-18.224-49.865-11.864l-417.226 151.773-60.319-60.319 316.954-211.319c11.604-7.736 19.126-20.26 20.504-34.136 1.373-13.875-3.551-27.638-13.41-37.502l-121.41-121.41c-8.727-8.717-20.572-13.633-32.91-13.633h-102.091l-57.91-57.82 136.819-54.728c11.828-4.733 21.224-14.126 25.954-25.954l54.682-136.774 57.863 57.865v102.089c0 12.339 4.918 24.18 13.636 32.913l121.411 121.404 3.863 3.458c9.43 7.536 21.486 11.157 33.634 9.951 13.875-1.373 26.406-8.895 34.137-20.498l211.275-316.91 60.319 60.319-151.73 417.184c-6.358 17.491-1.699 37.122 11.865 49.863l165.954 155.91c14.011 14.066 21.909 33.097 21.909 52.955zM1024 791.866c0-44.597-17.734-87.375-49.269-118.91-0.335-0.333-0.661-0.677-1-1l-144.594-135.775 151.366-416.318c6.177-16.994 1.965-36.031-10.817-48.817l-121.367-121.41c-9.854-9.859-23.631-14.779-37.497-13.41-13.88 1.373-26.447 8.895-34.183 20.498l-211.318 316.957-67.594-67.636v-102.093c0-12.344-4.906-24.18-13.638-32.907l-121.363-121.41c-11.061-11.064-26.95-15.826-42.273-12.684-15.326 3.146-28.053 13.791-33.864 28.318l-73.546 183.818-183.773 73.5c-14.527 5.813-25.173 18.539-28.318 33.866-3.142 15.323 1.621 31.209 12.682 42.273l121.41 121.363 3.409 3.091c8.283 6.787 18.698 10.547 29.5 10.547h102.091l67.591 67.636-316.91 211.273c-11.603 7.735-19.126 20.305-20.5 34.182-1.367 13.87 3.554 27.645 13.408 37.5l121.41 121.364 5.045 4.408c12.443 9.291 28.902 11.817 43.773 6.409l416.274-151.318 136.821 145.546c31.535 31.535 74.31 49.273 118.905 49.273 44.595-0.004 87.333-17.742 118.868-49.273 31.53-31.532 49.269-74.273 49.269-118.864z" />
</font>
</defs>
</svg>
